<svg xmlns="http://www.w3.org/2000/svg" viewBox="0 0 500 500"><g id="freepik--background-complete--inject-115"><path d="M77.59,330.16l-13.12.28-6.66.11c-2.23.05-4.47,0-6.7.06h-.44v-.45L50.61,319v-.5h.5l13.24.06c4.42,0,8.83.12,13.24.17h.28V319c0,1.9-.09,3.79-.13,5.65Zm0,0-.14-5.65c0-1.87-.11-3.71-.13-5.54l.27.27c-4.41.06-8.82.16-13.24.17l-13.24.06.5-.5,0,11.19-.45-.44c2.18,0,4.36,0,6.55,0l6.58.11Z" style="fill:#ebebeb"></path><path d="M62.82,344.27l-13.12.28-6.66.11c-2.23,0-4.47,0-6.7.06H35.9v-.45l-.06-11.19v-.5h.5l13.24.06c4.41,0,8.83.12,13.24.17h.28v.27c0,1.9-.08,3.79-.13,5.65Zm0,0-.14-5.65c0-1.87-.11-3.71-.13-5.54l.27.27c-4.41,0-8.83.16-13.24.17l-13.24.06.5-.5-.05,11.19-.45-.44c2.18,0,4.36,0,6.55.05l6.58.11Z" style="fill:#ebebeb"></path><path d="M167.19,208.46l-13.13.28-6.66.11c-2.23.05-4.46,0-6.69.06h-.45v-.45l0-11.19v-.5h.51l13.24.06c4.41,0,8.82.12,13.24.17h.27v.27c0,1.9-.09,3.79-.13,5.65Zm0,0-.15-5.65c0-1.87-.11-3.71-.13-5.54l.28.27c-4.42.05-8.83.16-13.24.17l-13.24.06.49-.5,0,11.19-.44-.45c2.18,0,4.35,0,6.54.06l6.58.11Z" style="fill:#ebebeb"></path><path d="M152.41,222.57l-13.12.28-6.66.11c-2.23,0-4.46,0-6.7.06h-.44v-.45l-.06-11.19v-.5h.5l13.24.06c4.42,0,8.83.12,13.24.17h.28v.27c0,1.9-.09,3.79-.13,5.65Zm0,0-.14-5.65c0-1.87-.11-3.71-.13-5.54l.27.27c-4.41,0-8.82.16-13.24.17l-13.24.06.5-.5-.05,11.19-.45-.45c2.19,0,4.36,0,6.55.06l6.58.11Z" style="fill:#ebebeb"></path><path d="M137.7,208.46l-13.12.28-6.67.11c-2.22.05-4.46,0-6.69.06h-.44v-.45l0-11.19v-.5h.5l13.24.06c4.41,0,8.83.12,13.24.17H138v.27c0,1.9-.08,3.79-.13,5.65Zm0,0-.14-5.65c-.05-1.87-.11-3.71-.13-5.54l.27.27c-4.41.05-8.83.16-13.24.17l-13.24.06.5-.5,0,11.19-.45-.45c2.18,0,4.36,0,6.55.06l6.58.11Z" style="fill:#ebebeb"></path><path d="M463.66,344.27l-13.13.28-6.66.11c-2.22,0-4.46,0-6.69.06h-.45v-.45l-.05-11.19v-.5h.5l13.24.06c4.41,0,8.83.12,13.24.17h.27v.27c0,1.9-.08,3.79-.13,5.65Zm0,0-.14-5.65c0-1.87-.12-3.71-.13-5.54l.27.27c-4.41,0-8.83.16-13.24.17l-13.24.06.5-.5-.06,11.19-.44-.44c2.18,0,4.36,0,6.54.05l6.58.11Z" style="fill:#ebebeb"></path><path d="M356.85,126l-13.13.28-6.66.11c-2.23,0-4.46,0-6.69.06h-.45V126l-.05-11.19v-.5h.51l13.24.06c4.41,0,8.82.12,13.24.17h.27v.27c0,1.9-.09,3.79-.13,5.65Zm0,0-.15-5.65c0-1.87-.11-3.71-.13-5.54l.28.27c-4.42,0-8.83.16-13.24.17l-13.24.06.49-.5L330.81,126l-.44-.45c2.18,0,4.35,0,6.54.06l6.58.11Z" style="fill:#ebebeb"></path><path d="M448.89,60.59l-13.13.28L429.1,61c-2.22.05-4.46,0-6.69.06H422v-.45l0-11.19v-.5h.51l13.24.07c4.41,0,8.82.11,13.24.16h.27v.27c0,1.9-.09,3.79-.13,5.66Zm0,0-.14-5.65c-.05-1.86-.12-3.71-.14-5.54l.28.27c-4.42.06-8.83.16-13.24.17l-13.24.06.5-.5-.06,11.19-.44-.44c2.18,0,4.35,0,6.54.05l6.58.11Z" style="fill:#ebebeb"></path><path d="M463.66,74.7,450.53,75l-6.66.11c-2.22,0-4.46,0-6.69.06h-.45V74.7l-.05-11.19V63h.5l13.24.07c4.41,0,8.83.11,13.24.16h.27v.27c0,1.9-.08,3.79-.13,5.66Zm0,0-.14-5.65c0-1.87-.12-3.71-.13-5.54l.27.27c-4.41.06-8.83.16-13.24.17L437.18,64l.5-.5-.06,11.19-.44-.44c2.18,0,4.36,0,6.54,0l6.58.11Z" style="fill:#ebebeb"></path><path d="M67.59,60.59l-13.12.28L47.81,61c-2.23.05-4.47,0-6.7.06h-.44v-.45L40.61,49.4v-.5h.5L54.35,49c4.42,0,8.83.11,13.24.16h.28v.27c0,1.9-.09,3.79-.13,5.66Zm0,0-.14-5.65c0-1.86-.11-3.71-.13-5.54l.27.27c-4.41.06-8.82.16-13.24.17l-13.24.06.5-.5,0,11.19-.45-.44c2.18,0,4.36,0,6.55.05l6.58.11Z" style="fill:#ebebeb"></path><circle cx="92.74" cy="90.99" r="33.27" transform="translate(-26.41 142.79) rotate(-67.95)" style="fill:#ebebeb"></circle><circle cx="94.27" cy="91.73" r="31.74" style="fill:#dbdbdb"></circle><circle cx="94.27" cy="91.73" r="29.74" transform="translate(-8.21 174.17) rotate(-83.03)" style="fill:#fff"></circle><path d="M123.33,85.41c-13.54,8.21-35.8,21.67-48.24,29.05A29.71,29.71,0,0,1,67,103.53L108.11,65.4A29.78,29.78,0,0,1,123.33,85.41Z" style="fill:#ebebeb;opacity:0.5"></path><path d="M124,92.76a29.58,29.58,0,0,1-2,9.67L84.93,120a29.56,29.56,0,0,1-4.69-2C91.45,111.48,111.92,99.7,124,92.76Z" style="fill:#ebebeb;opacity:0.5"></path><rect x="93.98" y="64.15" width="0.57" height="4.51" style="fill:#c7c7c7"></rect><rect x="81.32" y="67.54" width="0.58" height="4.51" transform="translate(-23.96 50.15) rotate(-30)" style="fill:#c7c7c7"></rect><rect x="72.05" y="76.81" width="0.57" height="4.51" transform="translate(-32.31 102.17) rotate(-60)" style="fill:#c7c7c7"></rect><rect x="66.69" y="91.44" width="4.51" height="0.57" style="fill:#c7c7c7"></rect><rect x="70.08" y="104.1" width="4.51" height="0.57" transform="translate(-42.5 50.15) rotate(-30)" style="fill:#c7c7c7"></rect><rect x="79.35" y="113.37" width="4.51" height="0.58" transform="translate(-57.62 127.58) rotate(-60.03)" style="fill:#c7c7c7"></rect><rect x="93.98" y="114.8" width="0.57" height="4.51" style="fill:#c7c7c7"></rect><rect x="106.64" y="111.41" width="0.58" height="4.51" transform="translate(-42.5 68.69) rotate(-30)" style="fill:#c7c7c7"></rect><rect x="115.91" y="102.14" width="0.57" height="4.51" transform="translate(-32.31 152.82) rotate(-60)" style="fill:#c7c7c7"></rect><rect x="117.34" y="91.44" width="4.51" height="0.57" style="fill:#c7c7c7"></rect><rect x="113.95" y="78.78" width="4.51" height="0.57" transform="matrix(0.87, -0.5, 0.5, 0.87, -23.96, 68.69)" style="fill:#c7c7c7"></rect><rect x="104.68" y="69.51" width="4.51" height="0.58" transform="translate(-6.95 127.56) rotate(-60.03)" style="fill:#c7c7c7"></rect><polygon points="94.7 66.19 95.68 93.73 92.86 93.7 93.93 66.18 94.7 66.19" style="fill:#c7c7c7"></polygon><polygon points="111.86 82.12 93.33 93.95 91.98 91.47 111.49 81.45 111.86 82.12" style="fill:#a6a6a6"></polygon><path d="M95.23,91.73a1,1,0,0,1-1.93,0,1,1,0,1,1,1.93,0Z" style="fill:#c7c7c7"></path><path d="M83.09,278.69V449.4H186.28V278.69ZM92.46,342h84.45v44.43H92.46Zm0-55h84.45v44.43H92.46Z" style="fill:#dbdbdb"></path><rect x="36.42" y="278.69" width="46.66" height="170.7" transform="translate(119.5 728.08) rotate(180)" style="fill:#ebebeb"></rect><rect x="156.84" y="286.93" width="20.07" height="44.44" transform="translate(333.75 618.3) rotate(180)" style="fill:#ebebeb"></rect><path d="M176.63,438.93H92.2V396.06h84.43Zm-83.93-.5h83.43V396.56H92.7Z" style="fill:#ebebeb"></path><rect x="126.08" y="408.23" width="16.67" height="6.09" transform="translate(268.84 822.55) rotate(180)" style="fill:#ebebeb"></rect><rect x="156.84" y="341.96" width="20.07" height="44.44" transform="translate(333.75 728.36) rotate(180)" style="fill:#ebebeb"></rect><rect x="90.58" y="358.85" width="40.97" height="14.12" transform="translate(476.98 254.84) rotate(90)" style="fill:#a6a6a6"></rect><rect x="106.65" y="368.34" width="8.84" height="14.12" transform="translate(486.46 264.33) rotate(90)" style="fill:#dbdbdb"></rect><rect x="108.44" y="354.18" width="5.24" height="14.12" transform="translate(472.31 250.18) rotate(90)" style="fill:#dbdbdb"></rect><rect x="75.43" y="244.36" width="35.68" height="34.29" transform="translate(186.54 523) rotate(180)" style="fill:#ebebeb"></rect><rect x="61.87" y="244.36" width="13.56" height="34.29" transform="translate(137.3 523) rotate(180)" style="fill:#c7c7c7"></rect><polygon points="111.11 261.5 75.43 261.5 103.3 262.38 111.11 261.5" style="fill:#c7c7c7"></polygon><polygon points="75.43 274.5 111.11 274.5 83.24 275.38 75.43 274.5" style="fill:#c7c7c7"></polygon><polygon points="111.11 251.92 88.51 251.92 108.6 252.64 111.11 251.92" style="fill:#c7c7c7"></polygon><polygon points="75.43 269.45 98.03 269.45 77.94 270.18 75.43 269.45" style="fill:#c7c7c7"></polygon><polygon points="102.55 248.1 77.06 248.1 81.31 248.53 102.55 248.1" style="fill:#c7c7c7"></polygon><polygon points="107.64 265.18 82.15 265.18 86.4 265.61 107.64 265.18" style="fill:#c7c7c7"></polygon><polygon points="91.97 255.18 75.43 255.18 72.47 256.33 91.97 255.18" style="fill:#ebebeb"></polygon><polygon points="115.67 255.18 99.13 255.18 96.18 256.33 115.67 255.18" style="fill:#ebebeb"></polygon><polygon points="94.45 270.59 110.98 270.59 113.94 271.74 94.45 270.59" style="fill:#ebebeb"></polygon><polygon points="75.43 266.68 62.15 266.68 59.2 267.83 75.43 266.68" style="fill:#c7c7c7"></polygon><polygon points="70.79 261.5 60.5 261.5 61.87 260.56 70.79 261.5" style="fill:#c7c7c7"></polygon><rect x="116.6" y="297.09" width="35.68" height="34.29" transform="translate(268.88 628.46) rotate(180)" style="fill:#ebebeb"></rect><rect x="103.04" y="297.09" width="13.56" height="34.29" transform="translate(219.64 628.46) rotate(180)" style="fill:#c7c7c7"></rect><polygon points="152.28 314.23 116.6 314.23 144.47 315.11 152.28 314.23" style="fill:#c7c7c7"></polygon><polygon points="116.6 327.23 152.28 327.23 124.42 328.12 116.6 327.23" style="fill:#c7c7c7"></polygon><polygon points="152.28 304.65 129.68 304.65 149.77 305.37 152.28 304.65" style="fill:#c7c7c7"></polygon><polygon points="116.6 322.19 139.2 322.19 119.11 322.9 116.6 322.19" style="fill:#c7c7c7"></polygon><polygon points="143.72 300.83 118.23 300.83 122.48 301.26 143.72 300.83" style="fill:#c7c7c7"></polygon><polygon points="148.81 317.91 123.32 317.91 127.57 318.34 148.81 317.91" style="fill:#c7c7c7"></polygon><polygon points="133.14 307.91 116.6 307.91 113.65 309.06 133.14 307.91" style="fill:#ebebeb"></polygon><polygon points="156.84 307.91 140.3 307.91 137.35 309.06 156.84 307.91" style="fill:#ebebeb"></polygon><polygon points="135.62 323.32 152.16 323.32 155.11 324.47 135.62 323.32" style="fill:#ebebeb"></polygon><polygon points="116.6 319.41 103.32 319.41 100.37 320.56 116.6 319.41" style="fill:#c7c7c7"></polygon><polygon points="111.97 314.23 101.67 314.23 103.04 313.29 111.97 314.23" style="fill:#c7c7c7"></polygon><rect x="92.45" y="342.69" width="11.55" height="43.71" style="fill:#ebebeb"></rect><path d="M98.23,351.31a2.41,2.41,0,1,0-2.41-2.4A2.41,2.41,0,0,0,98.23,351.31Z" style="fill:#fff"></path><path d="M98.23,350.28a1.38,1.38,0,1,0-1.38-1.37A1.38,1.38,0,0,0,98.23,350.28Z" style="fill:#a6a6a6"></path><rect x="92.91" y="368.42" width="10.63" height="11.55" transform="translate(472.42 275.96) rotate(90)" style="fill:#fff"></rect><rect x="118.13" y="377.37" width="43.71" height="9.09" style="fill:#c7c7c7"></rect><path d="M126.75,381.92a2.41,2.41,0,1,0-2.41,2.4A2.41,2.41,0,0,0,126.75,381.92Z" style="fill:#fff"></path><path d="M125.72,381.92a1.38,1.38,0,1,0-2.75,0,1.38,1.38,0,0,0,2.75,0Z" style="fill:#a6a6a6"></path><rect x="144.31" y="377.37" width="10.63" height="9.09" style="fill:#fff"></rect><path d="M185.19,49.62H314.81v187.6H185.19ZM311,53.4H189v180H311Z" style="fill:#ebebeb"></path><rect x="248.11" y="54.39" width="3.78" height="180.94" style="fill:#ebebeb"></rect><rect x="181.76" y="57.27" width="136.48" height="5.27" transform="translate(500 119.8) rotate(180)" style="fill:#ebebeb"></rect><rect x="181.76" y="63.2" width="136.48" height="5.27" transform="translate(500 131.66) rotate(180)" style="fill:#ebebeb"></rect><rect x="181.76" y="69.13" width="136.48" height="5.27" transform="translate(500 143.52) rotate(180)" style="fill:#ebebeb"></rect><rect x="181.76" y="75.06" width="136.48" height="5.27" transform="translate(500 155.38) rotate(180)" style="fill:#ebebeb"></rect><rect x="181.76" y="80.98" width="136.48" height="5.27" transform="translate(500 167.24) rotate(180)" style="fill:#ebebeb"></rect><rect x="181.76" y="86.91" width="136.48" height="5.27" transform="translate(500 179.1) rotate(180)" style="fill:#ebebeb"></rect><rect x="181.76" y="92.84" width="136.48" height="5.27" transform="translate(500 190.96) rotate(180)" style="fill:#ebebeb"></rect><rect x="181.76" y="98.77" width="136.48" height="5.27" transform="translate(500 202.82) rotate(180)" style="fill:#ebebeb"></rect><rect x="181.76" y="104.7" width="136.48" height="5.27" transform="translate(500 214.68) rotate(180)" style="fill:#ebebeb"></rect><rect x="193" y="56.2" width="0.95" height="121.49" style="fill:#263238"></rect><polygon points="191.8 182.09 195.16 182.09 194.31 177.27 192.64 177.27 191.8 182.09" style="fill:#263238"></polygon><rect x="189.59" y="56.2" width="0.95" height="175.75" style="fill:#263238"></rect><polygon points="188.39 235.5 191.75 235.5 190.91 230.67 189.23 230.67 188.39 235.5" style="fill:#263238"></polygon><rect x="175.89" y="48.88" width="148.22" height="11.03" transform="translate(500 108.78) rotate(180)" style="fill:#dbdbdb"></rect></g><g id="freepik--Floor--inject-115"><polygon points="35.47 449.39 89.1 449.15 142.73 449.06 250 448.9 357.27 449.06 410.9 449.15 464.53 449.39 410.9 449.64 357.27 449.73 250 449.89 142.73 449.73 89.1 449.64 35.47 449.39" style="fill:#263238"></polygon></g><g id="freepik--Plant--inject-115"><path d="M78.34,350.69a39.05,39.05,0,0,1-.76,15,41.44,41.44,0,0,1-2.29,6.62c-1.19,2.73-2.44,5.41-2.14,8.4.29.2-.7.16-.73-.13-8-4.55-18.27-5.39-24.43-12.84a25.54,25.54,0,0,1-5.09-12.47c-.75-4.87-1-10.26.29-15.06,1.06-4.06,3.43-8,7.25-10s9.09-1.87,13.24-.59C72.62,332.39,77.07,342,78.34,350.69Z" style="fill:#FFC727"></path><path d="M82.44,409.94c-1.09-3.64-2.18-7.28-3.3-10.91-2.2-7.12-4.48-14.2-7-21.21q-2.26-6.29-4.79-12.46a75.38,75.38,0,0,1,1-7.74c.67-3.1,1.64-6.1,2.54-9.13.06-.19-.24-.29-.32-.11-1.8,4.18-4.14,9.53-4.2,14.49q-2.92-7-6.29-13.77a58.76,58.76,0,0,1,.35-11.47.14.14,0,0,0-.27-.05,40.75,40.75,0,0,0-.78,10.12c-1.72-3.39-3.53-6.75-5.46-10.05-.17-.3-.59,0-.43.3q4.5,8.69,8.41,17.69a38.52,38.52,0,0,0-12.55-7.26c-.2-.07-.35.21-.14.3a45.76,45.76,0,0,1,13.57,9q2.82,6.58,5.38,13.27c-5-4.91-11.86-8.14-18.49-9.87-.23-.06-.29.29-.07.35,7.67,2.31,13.63,6.66,19.47,11.89.67,1.8,1.34,3.6,2,5.41q3.7,10.29,7.06,20.7,1.62,5,3.18,10c1.12,3.59,2,7.38,3.45,10.85.14.33.73.25.66-.14A103.37,103.37,0,0,0,82.44,409.94Z" style="fill:#263238"></path><path d="M69.17,343.69a19.94,19.94,0,0,0-2.88,7.18c0,.07.09.11.11,0a60.72,60.72,0,0,1,3.13-7.05C69.65,343.63,69.3,343.48,69.17,343.69Z" style="fill:#263238"></path><path d="M54.89,360.36a21,21,0,0,0-7.18-2.42c-.07,0-.11.09,0,.12,1.15.48,2.37.81,3.54,1.26s2.31,1,3.5,1.41A.21.21,0,0,0,54.89,360.36Z" style="fill:#263238"></path><path d="M50.87,340.3a13.79,13.79,0,0,0-2.31-1.42.12.12,0,0,0-.13.2,14.27,14.27,0,0,0,2.27,1.48C50.85,340.65,51,340.4,50.87,340.3Z" style="fill:#263238"></path><path d="M105.32,377.88c-5.77,1.71-11.56,3.29-17.32,5-.5.15-10.25-18.52-6.73-28.14a31.42,31.42,0,0,1,19.59-18.59c4.12-1.4,9.18-2.57,13.53-1.62,3.86.86,6.59,4,7.85,7.66,1.71,4.94,1.14,10.84.21,15.88a27.71,27.71,0,0,1-5.67,13C113.72,374.65,109.81,376.54,105.32,377.88Z" style="fill:#FFC727"></path><path d="M113.67,360.13a76.87,76.87,0,0,1-11.3,4.45,48,48,0,0,0-7.54,2.73c2.43-5.43,5.1-10.74,7.94-16,3.72-1.08,7.64-2.76,10.45-5.4a.16.16,0,0,0-.21-.24c-3.07,2.17-6.46,3.47-9.86,4.94.77-1.42,1.54-2.83,2.33-4.24a.36.36,0,0,0-.59-.4,121.3,121.3,0,0,0-8.19,13.75,63.87,63.87,0,0,1-.59-12.6c0-.11-.15-.12-.17,0A41.81,41.81,0,0,0,96.09,361c-2,4-3.87,8.17-5.52,12.36-.66-2.52-1.51-5-2.08-7.53a34.23,34.23,0,0,1-.83-11.09c0-.11-.15-.12-.17,0A39.06,39.06,0,0,0,89.91,375q-1.45,3.78-2.73,7.59a151.44,151.44,0,0,0-7.65,40,.25.25,0,0,0,.49,0,198.49,198.49,0,0,1,8.59-39.52c1.67-5,3.6-9.9,5.71-14.69,3.4-1,6.79-2.37,10.14-3.53a32,32,0,0,0,9.34-4.58A.12.12,0,0,0,113.67,360.13Z" style="fill:#263238"></path><path d="M119.05,354.71c-3.53,1.25-6.87,3-10.39,4.28-.16.06-.07.32.1.28,3.72-.77,7.42-1.92,10.42-4.36C119.3,354.81,119.17,354.66,119.05,354.71Z" style="fill:#263238"></path><path d="M90.26,347.1c0-.19-.23-.29-.28-.1-1,3.25-1.64,6.7-.7,10a.13.13,0,0,0,.25,0C89.7,353.66,89.51,350.4,90.26,347.1Z" style="fill:#263238"></path><path d="M104.83,339.59a8.6,8.6,0,0,0-1.53,5.53c0,.12.2.2.24.05.43-1.86,1.14-3.55,1.72-5.36A.25.25,0,0,0,104.83,339.59Z" style="fill:#263238"></path><path d="M36.75,386.11c1.69,5.37,5.71,12.78,12.07,12.84,4.12,0,8.27-.45,12.4-.51,4.43-.07,8.86-.06,13.28.21.36,0-.53-13.26-11.17-19.72-3-1.81-6.62-2.38-10-3.11a46.12,46.12,0,0,0-11.82-1.23c-2.44.09-4.47.61-5.34,3.11S35.94,383.56,36.75,386.11Z" style="fill:#FFC727"></path><path d="M41.33,379.4c2.58.67,5.19,1.43,7.78,2.25A28.16,28.16,0,0,0,47,379.56c-1.11-.92-2.34-1.66-3.53-2.47-.1-.07,0-.26.08-.21a14.56,14.56,0,0,1,6.28,5c3.23,1.05,6.43,2.2,9.51,3.47a35.28,35.28,0,0,1,6.1,3.2,24.26,24.26,0,0,0-2.21-3.83c-1.41-1.83-3.32-2.85-5.17-4.15a.16.16,0,0,1,.17-.28,15.1,15.1,0,0,1,8.29,9,35.74,35.74,0,0,1,6,5.48c7,8,12.57,18.63,12.59,29.48,0,.26-.41.33-.46.06a60.09,60.09,0,0,0-13.42-28.82c-.5-.59-1-1.15-1.55-1.69a46.88,46.88,0,0,0-5.81-.43c-2.26,0-4.51.33-6.77.51-3.71.3-7.81.35-11.16-1.52-.15-.08-.05-.34.12-.28,7.46,2.72,15.29-.73,22.78.89a35.09,35.09,0,0,0-11-7.12l-.69-.27c-4.79.57-9.85,1.82-14.51.26a.11.11,0,0,1,.06-.22c4.51,1.13,8.83-.29,13.28-.51-4.85-1.89-9.78-3.39-14.64-5.26C40.9,379.66,40.89,379.29,41.33,379.4Z" style="fill:#263238"></path><path d="M39.22,384.12a65,65,0,0,0,7,.53c.05,0,.07.08,0,.09a14.34,14.34,0,0,1-7-.45C39.05,384.26,39.1,384.1,39.22,384.12Z" style="fill:#263238"></path><path d="M55,379.52a11.52,11.52,0,0,1,3.45,2.4.15.15,0,0,1-.18.23c-.58-.43-1.19-.83-1.79-1.22a16,16,0,0,1-1.68-1.07A.2.2,0,0,1,55,379.52Z" style="fill:#263238"></path><path d="M92.52,396.79c-.08.17.18.34.27.15h0A.26.26,0,0,0,93,397a106.32,106.32,0,0,0,13,2.27c3.52.31,7.57.5,10.65-1.54,4.17-2.76,6.92-10.16,4.66-14.85-2.67-5.58-10.71-2.55-14.74-.57A29.57,29.57,0,0,0,92.52,396.79Z" style="fill:#FFC727"></path><path d="M89.4,399.37a41.15,41.15,0,0,1,7.76-5.91,26.52,26.52,0,0,1,7.87-8c.15-.1.28.14.14.25a35.27,35.27,0,0,0-6.63,7,73.05,73.05,0,0,1,9.73-4.43A13,13,0,0,1,113.5,383s.1,0,.06.08a21.34,21.34,0,0,0-4.73,4.95c2-.74,4-1.42,6-2.09.18-.06.25.22.08.28-3.55,1.39-7.19,2.86-10.71,4.55a41.49,41.49,0,0,0,13,0c.12,0,.17.15,0,.18a25.52,25.52,0,0,1-13.76.21,62.87,62.87,0,0,0-6.52,3.65,16.3,16.3,0,0,1,5.27.43,39.7,39.7,0,0,0,9.27,1.05c.12,0,.15.19,0,.21-5.38.93-10.46-1.52-15.79-.88a40.94,40.94,0,0,0-5.55,4.53A41.9,41.9,0,0,0,82,411.52c-2.24,4.57-3.46,9.41-5.27,14.13a.17.17,0,0,1-.33-.09C78,416.25,82.62,406,89.4,399.37Z" style="fill:#263238"></path><path d="M105.62,386.61a6.12,6.12,0,0,1,1.37-1.67,5.57,5.57,0,0,1,1.59-1.19c.06,0,.09.05,0,.09-.44.5-1,.87-1.53,1.35s-.87,1-1.36,1.52C105.68,386.77,105.58,386.69,105.62,386.61Z" style="fill:#263238"></path><path d="M114.49,389.5c.79-.2,1.64-.19,2.45-.35a24,24,0,0,0,2.37-.72.1.1,0,0,1,.08.18,8,8,0,0,1-4.9,1.14A.13.13,0,0,1,114.49,389.5Z" style="fill:#263238"></path><polygon points="67.24 414.09 67.95 422.11 70.34 449.17 91.54 449.17 94.53 422.11 95.42 414.09 67.24 414.09" style="fill:#37474f"></polygon><polygon points="67.24 414.09 67.95 422.11 94.53 422.11 95.42 414.09 67.24 414.09" style="fill:#263238"></polygon><rect x="65.15" y="411.91" width="32.37" height="6.5" transform="translate(162.66 830.32) rotate(180)" style="fill:#37474f"></rect></g><g id="freepik--Cabinet--inject-115"><rect x="300.05" y="134.7" width="113.35" height="314.69" style="fill:#37474f"></rect><rect x="295.08" y="129.44" width="123.28" height="5.27" style="fill:#263238"></rect><rect x="418.37" y="129.44" width="46.17" height="5.27" style="fill:#37474f"></rect><rect x="413.4" y="134.7" width="45.53" height="314.69" style="fill:#263238"></rect><path d="M402.48,381.6H311V335.87h91.51Zm-91-.5H402V336.37H311.47Z" style="fill:#263238"></path><rect x="340.1" y="349.29" width="26.45" height="9" style="fill:#263238"></rect><path d="M371.43,357.87H344.48v-8.15h26.95Zm-26.45-.5h25.95v-7.15H345Z" style="fill:#263238"></path><path d="M402.48,438.74H311V393h91.51Zm-91-.5H402V393.51H311.47Z" style="fill:#263238"></path><rect x="340.1" y="406.43" width="26.45" height="9" style="fill:#263238"></rect><path d="M371.43,415H344.48v-8.14h26.95ZM345,414.5h25.95v-7.14H345Z" style="fill:#263238"></path><path d="M402.48,324.46H311V278.74h91.51Zm-91-.5H402V279.24H311.47Z" style="fill:#263238"></path><rect x="340.1" y="292.15" width="26.45" height="9" style="fill:#263238"></rect><path d="M371.43,300.73H344.48v-8.15h26.95Zm-26.45-.5h25.95v-7.15H345Z" style="fill:#263238"></path><path d="M402.48,210.51H311V164.79h91.51Zm-91-.5H402V165.29H311.47Z" style="fill:#263238"></path><rect x="340.1" y="178.2" width="26.45" height="9" style="fill:#263238"></rect><path d="M371.43,186.78H344.48v-8.15h26.95Zm-26.45-.5h25.95v-7.15H345Z" style="fill:#263238"></path><rect x="322.01" y="221.85" width="80.22" height="45.23" style="fill:#263238"></rect><rect x="322.05" y="207.98" width="70.14" height="50.84" style="fill:#FFC727"></rect><polygon points="346.83 202.71 322.05 202.71 322.05 207.98 348.26 207.98 346.83 202.71" style="fill:#FFC727"></polygon><g style="opacity:0.30000000000000004"><rect x="322.05" y="207.98" width="70.14" height="50.84"></rect><polygon points="346.83 202.71 322.05 202.71 322.05 207.98 348.26 207.98 346.83 202.71"></polygon></g><rect x="324.48" y="204.77" width="20.27" height="3.06" style="fill:#fff"></rect><polygon points="392.19 258.82 322.05 258.82 321.54 211.13 391.68 211.13 392.19 258.82" style="fill:#FFC727"></polygon><polygon points="346.27 206.3 321.49 206.3 321.54 211.13 347.75 211.13 346.27 206.3" style="fill:#FFC727"></polygon><g style="opacity:0.1"><polygon points="392.19 258.82 322.05 258.82 321.54 211.13 391.68 211.13 392.19 258.82"></polygon><polygon points="346.27 206.3 321.49 206.3 321.54 211.13 347.75 211.13 346.27 206.3"></polygon></g><rect x="318.54" y="204.39" width="70.14" height="50.84" style="fill:#FFC727"></rect><polygon points="343.32 199.13 318.54 199.13 318.54 204.39 344.74 204.39 343.32 199.13" style="fill:#FFC727"></polygon><g style="opacity:0.30000000000000004"><rect x="318.54" y="204.39" width="70.14" height="50.84"></rect><polygon points="343.32 199.13 318.54 199.13 318.54 204.39 344.74 204.39 343.32 199.13"></polygon></g><rect x="320.97" y="201.18" width="20.27" height="3.06" style="fill:#fff"></rect><polygon points="388.68 255.23 318.54 255.23 318.03 207.54 388.17 207.54 388.68 255.23" style="fill:#FFC727"></polygon><polygon points="342.76 202.71 317.98 202.71 318.03 207.54 344.24 207.54 342.76 202.71" style="fill:#FFC727"></polygon><g style="opacity:0.1"><polygon points="388.68 255.23 318.54 255.23 318.03 207.54 388.17 207.54 388.68 255.23"></polygon><polygon points="342.76 202.71 317.98 202.71 318.03 207.54 344.24 207.54 342.76 202.71"></polygon></g><rect x="287.48" y="182.56" width="70.14" height="50.84" style="fill:#FFC727"></rect><polygon points="312.26 177.29 287.48 177.29 287.48 182.56 313.68 182.56 312.26 177.29" style="fill:#FFC727"></polygon><g style="opacity:0.2"><rect x="287.48" y="182.56" width="70.14" height="50.84"></rect><polygon points="312.26 177.29 287.48 177.29 287.48 182.56 313.68 182.56 312.26 177.29"></polygon></g><rect x="289.92" y="178.88" width="20.27" height="3.06" style="fill:#fff"></rect><polygon points="357.43 233.4 287.29 233.4 281.88 186.78 352.02 186.78 357.43 233.4" style="fill:#FFC727"></polygon><polygon points="306.1 181.95 281.32 181.95 281.88 186.78 308.09 186.78 306.1 181.95" style="fill:#FFC727"></polygon><rect x="277.15" y="205.84" width="70.14" height="50.84" style="fill:#FFC727"></rect><polygon points="301.93 200.57 277.14 200.57 277.14 205.84 303.35 205.84 301.93 200.57" style="fill:#FFC727"></polygon><g style="opacity:0.2"><rect x="277.15" y="205.84" width="70.14" height="50.84" style="fill:#fff"></rect><polygon points="301.93 200.57 277.14 200.57 277.14 205.84 303.35 205.84 301.93 200.57" style="fill:#fff"></polygon></g><rect x="279.58" y="202.63" width="20.27" height="3.06" style="fill:#fff"></rect><polygon points="347.28 256.68 277.14 256.68 276.64 208.99 346.77 208.99 347.28 256.68" style="fill:#FFC727"></polygon><polygon points="301.36 204.16 276.58 204.16 276.64 208.99 302.84 208.99 301.36 204.16" style="fill:#FFC727"></polygon><g style="opacity:0.4"><polygon points="347.28 256.68 277.14 256.68 276.64 208.99 346.77 208.99 347.28 256.68" style="fill:#fff"></polygon><polygon points="301.36 204.16 276.58 204.16 276.64 208.99 302.84 208.99 301.36 204.16" style="fill:#fff"></polygon></g><rect x="272.58" y="221.85" width="91.01" height="45.23" style="fill:#455a64"></rect><path d="M363.83,267.32h-91.5V221.6h91.5Zm-91-.5h90.5V222.1h-90.5Z" style="fill:#263238"></path><rect x="301.45" y="235.01" width="26.45" height="9" style="fill:#263238"></rect><path d="M332.79,243.59h-27v-8.15h27Zm-26.46-.5h26v-7.15h-26Z" style="fill:#263238"></path><rect x="363.78" y="228.62" width="38.45" height="38.45" style="fill:#263238"></rect><rect x="311.91" y="226.18" width="12.34" height="5.2" style="fill:#fff"></rect><rect x="311.91" y="227.34" width="12.34" height="0.5" style="fill:#FFC727"></rect><rect x="311.91" y="229.73" width="12.34" height="0.5" style="fill:#FFC727"></rect><rect x="350.56" y="169.67" width="12.34" height="5.2" style="fill:#fff"></rect><rect x="350.56" y="170.83" width="12.34" height="0.5" style="fill:#FFC727"></rect><rect x="350.56" y="173.21" width="12.34" height="0.5" style="fill:#FFC727"></rect><rect x="350.64" y="283.64" width="12.34" height="5.2" style="fill:#fff"></rect><rect x="350.64" y="284.79" width="12.34" height="0.5" style="fill:#FFC727"></rect><rect x="350.64" y="287.18" width="12.34" height="0.5" style="fill:#FFC727"></rect><rect x="350.64" y="340.23" width="12.34" height="5.2" style="fill:#fff"></rect><rect x="350.64" y="341.38" width="12.34" height="0.5" style="fill:#FFC727"></rect><rect x="350.64" y="343.77" width="12.34" height="0.5" style="fill:#FFC727"></rect><rect x="350.64" y="396.82" width="12.34" height="5.2" style="fill:#fff"></rect><rect x="350.64" y="397.97" width="12.34" height="0.5" style="fill:#FFC727"></rect><rect x="350.64" y="400.36" width="12.34" height="0.5" style="fill:#FFC727"></rect><rect x="311.22" y="142.88" width="36.06" height="13.05" style="fill:#fff"></rect><rect x="311.22" y="145.91" width="36.06" height="1" style="fill:#FFC727"></rect><rect x="311.22" y="151.9" width="36.06" height="1" style="fill:#FFC727"></rect><path d="M317.24,148.46l2.11-2.37a.55.55,0,0,1,.43-.19h0a.38.38,0,0,1,.38.47l-.88,5a.59.59,0,0,1-.56.48.39.39,0,0,1-.39-.48l.63-3.58-1.52,1.7a.58.58,0,0,1-.42.2h0a.4.4,0,0,1-.36-.2l-.92-1.7-.63,3.58a.59.59,0,0,1-.55.48.39.39,0,0,1-.4-.48l.89-5a.58.58,0,0,1,.56-.47h0a.34.34,0,0,1,.35.2Z" style="fill:#263238"></path><path d="M325.11,148.73l-.47,2.63a2.54,2.54,0,0,1-2.41,2.06,1.73,1.73,0,0,1-.87-.22.42.42,0,0,1-.11-.61.55.55,0,0,1,.66-.21,1.06,1.06,0,0,0,.48.12,1.41,1.41,0,0,0,1.21-.78,2,2,0,0,1-.86.2,1.48,1.48,0,0,1-1.49-1.8l.36-2.05a.57.57,0,0,1,.54-.45.37.37,0,0,1,.38.45l-.36,2.05a.72.72,0,0,0,.73.89,1.11,1.11,0,0,0,1.05-.89l.35-2.05a.6.6,0,0,1,.12-.24.57.57,0,0,1,.42-.21.34.34,0,0,1,.25.08.36.36,0,0,1,.13.37Z" style="fill:#263238"></path><path d="M330.57,147.35l0,.12h.25a.38.38,0,0,1,.39.46.59.59,0,0,1-.56.48h-.25l-.53,3a.58.58,0,0,1-.56.47.38.38,0,0,1-.38-.47l.53-3h-.22a.39.39,0,0,1-.4-.48.6.6,0,0,1,.56-.46h.22l0-.12a2,2,0,0,1,.3-.84,1.34,1.34,0,0,1,.71-.52,1.61,1.61,0,0,1,.52-.08.39.39,0,0,1,.4.48.6.6,0,0,1-.56.47l-.22,0-.06,0A1,1,0,0,0,330.57,147.35Z" style="fill:#263238"></path><path d="M332.15,148.09a.58.58,0,0,1,.55-.47.38.38,0,0,1,.39.47l-.62,3.34a.59.59,0,0,1-.55.47.39.39,0,0,1-.4-.47Zm.62-1a.38.38,0,0,1-.38-.48l0-.18a.6.6,0,0,1,.56-.47.39.39,0,0,1,.39.47l0,.18A.6.6,0,0,1,332.77,147.05Z" style="fill:#263238"></path><path d="M335.25,145.92a.37.37,0,0,1,.38.47l-.88,5a.61.61,0,0,1-.56.48.39.39,0,0,1-.39-.48l.89-5A.58.58,0,0,1,335.25,145.92Z" style="fill:#263238"></path><path d="M336.12,149.75a2.63,2.63,0,0,1,2.46-2.13,1.65,1.65,0,0,1,1.7,2s0,0,0,0a.24.24,0,0,1,0,.08.52.52,0,0,1-.5.34H337a.89.89,0,0,0,.18.56,1.1,1.1,0,0,0,.76.39,1.4,1.4,0,0,0,1-.33.42.42,0,0,1,.62,0,.4.4,0,0,1,0,.56,2.28,2.28,0,0,1-1.76.66A1.71,1.71,0,0,1,336.12,149.75Zm1-.41h2.42a1.09,1.09,0,0,0-1.09-.91A1.52,1.52,0,0,0,337.11,149.34Z" style="fill:#263238"></path><path d="M340.92,150.67a.47.47,0,0,1,.67-.06,1.23,1.23,0,0,0,.84.36,1.26,1.26,0,0,0,.62-.16c.14-.1.2-.18.21-.24a.31.31,0,0,0,0-.1.53.53,0,0,0-.09-.11,2,2,0,0,0-.66-.23h0a2.87,2.87,0,0,1-.7-.22,1.14,1.14,0,0,1-.48-.51,1,1,0,0,1-.06-.53,1.6,1.6,0,0,1,.66-.93,2.2,2.2,0,0,1,1.11-.32,1.83,1.83,0,0,1,1.19.48.41.41,0,0,1,0,.62.47.47,0,0,1-.64.13,1.24,1.24,0,0,0-.73-.33.89.89,0,0,0-.54.17.36.36,0,0,0-.17.18.16.16,0,0,0,0,.07l.09.09a1.32,1.32,0,0,0,.57.19h0a2.37,2.37,0,0,1,.75.25,1.05,1.05,0,0,1,.51.51.93.93,0,0,1,.06.58,1.61,1.61,0,0,1-.7,1,2.28,2.28,0,0,1-1.17.34,2.05,2.05,0,0,1-1.4-.59A.43.43,0,0,1,340.92,150.67Z" style="fill:#263238"></path></g><g id="freepik--Character--inject-115"><path d="M312.7,448.37c-2.44.79-72.18-.1-74.81-1.82-1-.64-1.47-10.81-1.68-23.11v-.39c-.05-2.53-.08-5.14-.09-7.79,0-.36,0-.73,0-1.09L239.48,378l46.65.46-4.59,35.84-.06,1.42-.28,7.42,0,.76s26.54,12.28,29.23,14.48S315.15,447.59,312.7,448.37Z" style="fill:#ad6359"></path><path d="M312.7,448.37c-2.44.79-72.18-.1-74.81-1.82-1-.64-1.47-10.81-1.68-23.11v-.39c-.05-2.53-.08-5.14-.09-7.79,0-.36,0-.73,0-1.09l45.43.12-.06,1.42-.28,7.42,0,.76s26.54,12.28,29.23,14.48S315.15,447.59,312.7,448.37Z" style="fill:#ebebeb"></path><path d="M312.71,448.36c-1.26.41-20.2.37-38.72,0-3.73-.07-7.43-.16-11-.25-13.21-.36-24.12-.9-25.13-1.56S236.43,436,236.23,424c0-.17,0-.34,0-.51s0-.27,0-.39h0l44.94.07,0,.77s26.55,12.27,29.24,14.47S315.15,447.58,312.71,448.36Z" style="fill:#FFC727"></path><path d="M312,445.65c-11.75-.43-59.19-1.09-70.84-.63-.1,0-.1.06,0,.07,11.64.69,59.08,1,70.84.76C312.2,445.84,312.2,445.66,312,445.65Z" style="fill:#263238"></path><path d="M286.21,423.32c-4.61-.92-10.28-.29-13.86,3-.14.13,0,.32.2.28a65.1,65.1,0,0,1,13.63-2.66A.29.29,0,0,0,286.21,423.32Z" style="fill:#263238"></path><path d="M289.52,425.37c-4.61-.92-10.28-.28-13.85,3-.14.12,0,.32.19.27A64.41,64.41,0,0,1,289.5,426,.3.3,0,0,0,289.52,425.37Z" style="fill:#263238"></path><path d="M292.84,427.43c-4.62-.93-10.28-.29-13.86,3-.14.13,0,.32.19.28A65.19,65.19,0,0,1,292.81,428,.29.29,0,0,0,292.84,427.43Z" style="fill:#263238"></path><path d="M274,448.36c-3.73-.07-7.43-.16-11-.25-13.21-.36-24.12-.9-25.13-1.56S236.43,436,236.23,424c0-.17,0-.34,0-.51s0-.27,0-.39h0C242.42,427.36,264.12,441.8,274,448.36Z" style="fill:#263238"></path><path d="M283.89,423.28H233.67s10.08-117.3,9.69-119.35c-.5-2.63-3.47-14.5-7.42-30-1.24-4.85-2.58-10.06-4-15.46-3.75-14.59-7.88-30.54-11.48-44.41-5.41-20.79-9.62-31.51-9.62-31.51h42.56s35,100.18,36.39,120.89C291,321.48,283.89,423.28,283.89,423.28Z" style="fill:#37474f"></path><path d="M281.66,414.71c-7.67-.16-5.46-.22-13.13-.29-3.76,0-28.43-.25-31.94.34-.07,0-.07.14,0,.15,3.51.58,28.18.36,31.94.32,7.67-.07,5.46-.13,13.13-.3A.11.11,0,1,0,281.66,414.71Z" style="fill:#263238"></path><path d="M252.81,296.77c-1.65-7.26-4.11-14.38-6.26-21.5Q240,253.55,233.4,231.85C231.2,224.62,221,197.56,220,194c-.41-1.47-.63-.66-.1,1.19,1.06,3.75,18.5,57.4,22.92,72.09q3.31,11.06,6.65,22.1A92,92,0,0,1,252.17,300a49.23,49.23,0,0,1,.44,11.44c-.48,7.69-1.37,15.36-2.07,23l-2.13,23q-2.11,22.93-4.2,45.87c-.17,1.94-.34,3.88-.49,5.82-.05.65.93.6,1,0,1.65-15.11,2.92-30.28,4.33-45.42s2.82-30.14,4.22-45.2c.36-3.79.76-7.58.76-11.38A47,47,0,0,0,252.81,296.77Z" style="fill:#263238"></path><path d="M248.61,182.54c-3,22.87-8.57,60.29-12.67,91.39-9.61-37.68-25.06-91.38-25.06-91.38Z" style="fill:#263238"></path><path d="M260.77,449.05c-2.45.8-72.19.17-74.82-1.54-1-.64-1.52-10.8-1.77-23.11V424c-.06-2.54-.1-5.15-.12-7.79,0-.37,0-.73,0-1.1-.17-17.75,1.11-36.17,1.11-36.17l45.58.28-1.27,35.85,0,1.42-.26,7.41,0,.77s26.58,12.18,29.29,14.37S263.21,448.26,260.77,449.05Z" style="fill:#ad6359"></path><path d="M260.77,449.05c-2.45.8-72.19.17-74.82-1.54-1-.64-1.52-10.8-1.77-23.11V424c-.06-2.54-.1-5.15-.12-7.79,0-.37,0-.73,0-1.1l45.42,0,0,1.42-.26,7.41,0,.77s26.58,12.18,29.29,14.37S263.21,448.26,260.77,449.05Z" style="fill:#ebebeb"></path><path d="M260.77,449.05c-2.45.8-72.19.17-74.82-1.54-1-.64-1.52-10.8-1.77-23.11V424l45-.1,0,.77s26.58,12.18,29.29,14.37S263.21,448.26,260.77,449.05Z" style="fill:#FFC727"></path><path d="M260,446.34c-11.75-.39-59.19-.88-70.84-.38-.1,0-.1.07,0,.08,11.64.64,59.08.74,70.84.49C260.25,446.53,260.25,446.35,260,446.34Z" style="fill:#263238"></path><path d="M234.18,424.1c-4.62-.91-10.28-.25-13.85,3-.13.12,0,.32.2.27a64.93,64.93,0,0,1,13.63-2.71A.29.29,0,0,0,234.18,424.1Z" style="fill:#263238"></path><path d="M237.5,426.14c-4.62-.9-10.28-.25-13.85,3-.13.12,0,.32.2.27a65.17,65.17,0,0,1,13.63-2.7A.3.3,0,0,0,237.5,426.14Z" style="fill:#263238"></path><path d="M240.82,428.18c-4.62-.9-10.28-.24-13.84,3-.14.13,0,.32.19.28a64.55,64.55,0,0,1,13.63-2.71A.3.3,0,0,0,240.82,428.18Z" style="fill:#263238"></path><path d="M253.15,182.54a164.24,164.24,0,0,1-5.63,31.06c-.37,1.34-.78,2.65-1.22,3.91,0,0-3.76,1.76-11.18,6.3,0,0-.48,16.39-1,34.66-.54,20.43-1.1,43.22-1,48C233.6,324.6,230.93,424,230.93,424l-50.21.21s9.05-111,9-117.65c-.1-10.65,2.42-57.71,4.36-92,1.19-21.14,2.17-32,2.17-32Z" style="fill:#37474f"></path><path d="M229.21,415.1c-7.67-.13-5.47-.2-13.14-.24-3.75,0-28.42-.12-31.93.47-.08,0-.08.15,0,.16,3.51.56,28.18.24,31.93.19,7.68-.11,5.47-.17,13.14-.36A.11.11,0,0,0,229.21,415.1Z" style="fill:#263238"></path><path d="M200.46,189.83c-.92,28-1.89,50.6-3.14,78.6s-2.94,56.19-5.28,84.22c-1.31,15.66-2.54,37.68-4.23,53.31,0,.1.15.14.16,0,3.65-27.8,5.68-62.16,7.48-90.12s3-56,4-84c.53-15.84.94-26.25,1.41-42.09C200.82,189.59,200.47,189.61,200.46,189.83Z" style="fill:#263238"></path><path d="M202.39,208c1.24-.31,2.56-.41,3.82-.61,1-.16,2-.34,3-.57a13.12,13.12,0,0,0,5.36-2.25c2.5-2,5.38-11.88,5.73-12.51.6-1.09.78-.13.78,0,0,1.15-2.63,9.83-3.65,11.45-1.86,3-5.2,4.16-8.53,4.59-.95.12-1.91.18-2.87.24a21.08,21.08,0,0,1-3.64,0C202.25,208.34,202.2,208.08,202.39,208Z" style="fill:#263238"></path><path d="M246.14,217.75A89,89,0,0,0,232,224.33c-.18.1-.06.38.13.29,4.76-2,9.62-4,14.27-6.31A.31.31,0,0,0,246.14,217.75Z" style="fill:#263238"></path><path d="M247.57,185.11c0-.16-.3-.2-.3,0a157.51,157.51,0,0,1-.8,15.92c-.22,2.45-2.19,16-6.45,15-.71-.17-1.07-.87-1.18-1.95a16.85,16.85,0,0,1,.56-4.15c.47-2.84.85-5.69,1.1-8.56a78.17,78.17,0,0,0-.18-16,.14.14,0,0,0-.27,0,146.45,146.45,0,0,1-1.3,22.15c-.53,3.53-2.31,8.84,1.38,9.38s6.19-8.34,6.65-10.78A81.07,81.07,0,0,0,247.57,185.11Z" style="fill:#263238"></path><path d="M240.14,216.4a21.65,21.65,0,0,0-1,2.81,6.57,6.57,0,0,0-.4,2.31.17.17,0,0,0,.3.07,8.24,8.24,0,0,0,1-2.25c.32-.87.66-1.74,1-2.61A.47.47,0,0,0,240.14,216.4Z" style="fill:#263238"></path><path d="M232.3,121c1.12,13.32,9.85,43.24,15.6,48.63,4.39,4.13,26.73,7.32,36,7.45,4,0,4.73-23.73,1.74-24.14-9.23-1.27-24.15-4.07-26.75-5-1.83-.66-6.6-10.32-17.13-28.48C235.94,109.39,231.67,113.53,232.3,121Z" style="fill:#ad6359"></path><path d="M298.53,175.74c-1.51.36-1.33,1.16,1.19,2.32s13.46,3.61,12.28,7.35-16.57.07-20.61-2.18-9.8-7.31-9.8-7.31C284.73,176,292.37,175.59,298.53,175.74Z" style="fill:#ad6359"></path><path d="M285,153c8.83.65,19.87.92,28.08,6.61a4.94,4.94,0,0,1,2,2.56c3.73,2.48,3.68,5,3.68,5,2.76,3.37,2.35,5.93,2.35,5.93s4.35,3,3,5.89c-1.5,3.28-7.31-1.52-12.12-2.21-11-1.58-27.12-.74-30.34-.88Z" style="fill:#ad6359"></path><path d="M301.55,167a70.68,70.68,0,0,1,9.56,1.93,71.67,71.67,0,0,1,9.84,4.2A.09.09,0,0,0,321,173a37.82,37.82,0,0,0-19.46-6.13C301.41,166.88,301.38,167,301.55,167Z" style="fill:#263238"></path><path d="M301.53,160.24c3.12.69,8.59,1.94,17.12,7a0,0,0,0,0,0-.05,34,34,0,0,0-17.12-7.14C301.37,160.07,301.33,160.2,301.53,160.24Z" style="fill:#263238"></path><path d="M301.59,156.59A53.49,53.49,0,0,1,315,162.21s.06,0,0-.05c-5.37-3.68-7.73-4.41-13.42-5.75C301.42,156.36,301.39,156.54,301.59,156.59Z" style="fill:#263238"></path><path d="M280.19,179.5,282.66,151s-20.72-3.45-23.64-4.2c-1.24-.31-12.63-20.84-18-29.61-3.57-5.77-10.32-7.33-9.29,5.73.6,7.64,8.74,43.28,15,47.91C251.62,174.53,280.19,179.5,280.19,179.5Z" style="fill:#FFC727"></path><path d="M275,177.16c-.15-2.06.67-10.56.9-12.67s1.43-10.57,1.67-12.74c0-.12.18-.14.17,0-.2,2.16-.74,10.71-.95,12.83s-1.12,10.59-1.68,12.61A.06.06,0,0,1,275,177.16Z" style="fill:#263238"></path><path d="M268,177.15c-8.42-1.78-18.6-4.24-21.38-6.31-6.24-4.63-14.38-40.27-15-47.91-.66-8.39,1.89-10.75,4.74-9.82Z" style="fill:#020100;opacity:0.1"></path><path d="M195.36,187.8c.14.16,60,0,60.52-.66a41.17,41.17,0,0,0,.06-5.06s3.91-4.87,1.76-12.61c-4.55-16.36-15.58-50.73-18.86-54.12-2.88-3-10.6-4.36-15.36-1.56-10,5.88-25.65,48.3-29.56,58.34-1.93,5,1.74,8.1,2.32,10.43A44.34,44.34,0,0,0,195.36,187.8Z" style="fill:#FFC727"></path><path d="M254.68,182.84c-1.87-.08-3.74,0-5.61,0s-3.58-.09-5.36-.08c-3.66,0-7.32.07-11,.08-7.32,0-14.65,0-22,0l-6.14,0c-2.13,0-4.26.11-6.39.11a.08.08,0,1,0,0,.16c1.87.08,3.74.28,5.61.33l5.36.13c3.66.09,7.32.13,11,.15,7.32,0,14.65,0,22-.13,2.05,0,4.09-.15,6.14-.27s4.27-.06,6.39-.25C254.82,183.06,254.84,182.84,254.68,182.84Z" style="fill:#263238"></path><path d="M236,126.4c-3.64.15-9.25-6.92-10.77-11.69-.1-.32,1-3.35,2.08-7.08.66-2.27,1.35-4.81,1.82-7.18l14.13,6.5a38.5,38.5,0,0,0-3.21,8.8,5.87,5.87,0,0,0-.09,1,1,1,0,0,1,0,.17C239.92,118.81,239.54,126.26,236,126.4Z" style="fill:#ad6359"></path><path d="M240,116.75s0,.09,0,.15a8.92,8.92,0,0,1-1.54-.2c-8.55-1.87-8.52-12.77-8.33-15.8l3.53,1.62,9.64,4.44a38.49,38.49,0,0,0-3.2,8.8A5.69,5.69,0,0,0,240,116.75Z" style="fill:#263238"></path><path d="M230.78,85.32c-2.39,5.07-1.82,20.8,1.45,24.76,4.74,5.75,13.63,7.53,18.79,1.57,5-5.77,3.91-26.26.15-30C245.63,76.2,234.32,77.84,230.78,85.32Z" style="fill:#ad6359"></path><path d="M244.41,97.47s-.08,0-.07.09c.06,1.06,0,2.29-1,2.67a0,0,0,0,0,0,.06C244.53,100.09,244.65,98.46,244.41,97.47Z" style="fill:#263238"></path><path d="M243.43,96.39c-1.7-.08-1.73,3.35-.15,3.42S244.87,96.45,243.43,96.39Z" style="fill:#263238"></path><path d="M250.43,97.32s.08.05.08.09c0,1.06.09,2.28,1,2.64,0,0,0,.07,0,.06C250.38,99.94,250.22,98.32,250.43,97.32Z" style="fill:#263238"></path><path d="M251.39,96.22c1.7-.12,1.81,3.3.23,3.41S250,96.32,251.39,96.22Z" style="fill:#263238"></path><path d="M242.06,94.18a12.25,12.25,0,0,0,1.34-.42,2.26,2.26,0,0,0,1.29-.68.71.71,0,0,0-.09-.88,1.76,1.76,0,0,0-1.8-.25A2.62,2.62,0,0,0,241.24,93,.77.77,0,0,0,242.06,94.18Z" style="fill:#263238"></path><path d="M252.72,93.35a13,13,0,0,1-1.36-.36,2.32,2.32,0,0,1-1.31-.64.74.74,0,0,1,0-.88,1.8,1.8,0,0,1,1.79-.32,2.61,2.61,0,0,1,1.6,1A.77.77,0,0,1,252.72,93.35Z" style="fill:#263238"></path><path d="M243,106.89c.25.25.5.6.89.63a2.68,2.68,0,0,0,1.14-.26s.07,0,0,.06a1.42,1.42,0,0,1-1.35.56,1.12,1.12,0,0,1-.82-.94C242.83,106.88,242.91,106.86,243,106.89Z" style="fill:#263238"></path><path d="M244.09,103.73a3.61,3.61,0,0,0,2.4,1.62,4.29,4.29,0,0,0,1.29.07l.25,0,.23,0a.26.26,0,0,0,.22-.23h0a.41.41,0,0,0,0-.11h0v-.09c0-.82,0-2.06,0-2.06.3.15,1.81.85,1.79.42a54.59,54.59,0,0,0-1.31-10.93c0-.12-.21-.09-.2,0,0,3.41.68,6.78.78,10.19a6.37,6.37,0,0,0-1.7-.53c-.12,0,.18,2.4.13,2.76v0a5,5,0,0,1-3.73-1.19C244.11,103.57,244,103.64,244.09,103.73Z" style="fill:#263238"></path><path d="M234.47,94.05c1.43-2.86.39-8.11,2.07-9.25,3.64-2.47,9.5,4,14.05,4.66,4.4.63,6.26-2,6-5.69s-3-6.51-7.86-7.92A18.78,18.78,0,0,0,236,77.1s1.35-1.64,1-2.25-2.73.81-3.49,1.45a6.86,6.86,0,0,0-1.37,2,7.05,7.05,0,0,0-2-.48,4.22,4.22,0,0,0-2.77.82c-.12.25,1.46.67,2.58.88,0,0-2.48,2.5-2.76,4.89s1.89,14.22,2.77,14.46C231.06,99.17,233.9,95.21,234.47,94.05Z" style="fill:#263238"></path><path d="M230.4,79.27s.09,0,0,.07a7.58,7.58,0,0,0-2.84,3,9.48,9.48,0,0,0-.72,4.91c.27,3.22,1.41,6.27,2.35,9.34,0,.09-.12.14-.16,0a33.51,33.51,0,0,1-2.54-10.07C226.41,83.7,227.52,80.51,230.4,79.27Z" style="fill:#263238"></path><path d="M236.53,83.62a11,11,0,0,1,4,.81,15.51,15.51,0,0,1,3.2,2.16,15.47,15.47,0,0,0,7.84,3.35s0,.06,0,.06a13.52,13.52,0,0,1-7.36-2.66A34.1,34.1,0,0,0,240.87,85a14.08,14.08,0,0,0-4.37-1.12A.12.12,0,0,1,236.53,83.62Z" style="fill:#263238"></path><path d="M238.84,76.21a21.27,21.27,0,0,1,5.92-1.09,16.78,16.78,0,0,1,5.73.57c3.19,1,5.91,3.47,6.22,6.93a7.2,7.2,0,0,1-1.36,5c-.07.1-.21,0-.15-.11a7.44,7.44,0,0,0-.5-8.89c-2.36-2.69-6.1-3.38-9.51-3.3a30.22,30.22,0,0,0-6.34.92A0,0,0,0,1,238.84,76.21Z" style="fill:#263238"></path><path d="M241.92,102.56a4.46,4.46,0,1,1,5.06-4.9h0a4.47,4.47,0,0,1-3.95,4.92A4.11,4.11,0,0,1,241.92,102.56Zm1.16-8.24a3.86,3.86,0,1,0,3.31,3.41A3.84,3.84,0,0,0,243.08,94.32Z" style="fill:#FFC727"></path><path d="M252.16,102.75c-1.69-.24-3-2.19-2.93-4.52a5.38,5.38,0,0,1,1-3.09,2.78,2.78,0,0,1,4.76.11,5.28,5.28,0,0,1,.87,3.14c-.06,2.46-1.59,4.42-3.42,4.38Zm.71-8.28-.23,0a2.38,2.38,0,0,0-1.92,1,4.7,4.7,0,0,0-.89,2.75c-.05,2.13,1.12,3.89,2.63,3.92s2.76-1.67,2.81-3.8a4.65,4.65,0,0,0-.76-2.78A2.43,2.43,0,0,0,252.87,94.47Z" style="fill:#FFC727"></path><path d="M246.82,98.17l-.38-.46c.69-.56,2.27-1.28,3.34-.09l-.45.39C248.38,97,246.88,98.12,246.82,98.17Z" style="fill:#FFC727"></path><path d="M226.92,98.86l-.52-.28c.13-.25,1.34-2.39,2.68-2.58s9.22.76,9.56.8l-.07.6c-2.29-.27-8.45-.94-9.41-.81S227.24,98.27,226.92,98.86Z" style="fill:#FFC727"></path><path d="M232.23,98.29s-2.85-5.41-5.25-4.45-.71,8.48,1.82,9.8a2.7,2.7,0,0,0,3.78-1Z" style="fill:#ad6359"></path><path d="M227.52,96s-.06,0,0,.07c1.76,1,2.52,2.83,3,4.7a1.5,1.5,0,0,0-2.17-.69.06.06,0,0,0,0,.11,1.65,1.65,0,0,1,1.75.81,8,8,0,0,1,.69,1.58c.07.18.38.13.34-.07v0C231.45,100.08,230,96.54,227.52,96Z" style="fill:#263238"></path><path d="M219.17,128.89c2.35,17.4,11.72,48,16.27,52.33,4,3.82,26.16,4.4,36,3.85,3.68-.21.64-28.47-3.29-28.17-4.71.36-18.67.94-19.51,0s-11.32-20-19.12-31.59C222.44,114.87,218.28,122.31,219.17,128.89Z" style="fill:#ad6359"></path><path d="M280.77,155c8.61-.12,10.84,1.17,18.05-2.79,4.74-2.59,8.43-.69,5.33,4-5.08,7.66-16.15,10.15-20.24,9.9Z" style="fill:#ad6359"></path><path d="M257.27,160.3s10.17-4.09,19.34-5.12c6.33-.72,20.29-.74,31.74,14.47,2.71,3.6,4,10.67-2.55,6.39-4.67-3-6.71-6.38-9.75-7.65,0,0,.6,9.18-3.12,11.76a84.44,84.44,0,0,1-10.19,6,17.43,17.43,0,0,1-1.31-1.81s-3.7,2.08-10,.68Z" style="fill:#ad6359"></path><path d="M282.76,155.46c2.75,1.9,8.51,6,12,11,3.93,5.57,10,17.35,5.85,20.21-3,2.09-5.75-2.2-5.75-2.2s1.48,5.4-1.67,6.69c-2.88,1.18-4.78-2.27-4.78-2.27s.33,3.43-2.65,4c-3.6.72-3.71-6.59-8-9C276.86,183.42,282.76,155.46,282.76,155.46Z" style="fill:#ad6359"></path><path d="M288.23,169.67A27.19,27.19,0,0,1,295,184.39c0,.14-.09.22-.13.1a66.6,66.6,0,0,0-6.67-14.78S288.2,169.65,288.23,169.67Z" style="fill:#263238"></path><path d="M282.72,173.8c1.78,2.11,5.52,8.85,5.85,15.09,0,.14-.1.22-.13.09a71.58,71.58,0,0,0-5.78-15.15A0,0,0,0,1,282.72,173.8Z" style="fill:#263238"></path><path d="M282.32,155c1.1,0,2.19,0,3.29,0s2.18,0,3.27-.06,2.17-.1,3.25-.22a11,11,0,0,0,3.15-.79,8.12,8.12,0,0,1-3.09,1.17,20.28,20.28,0,0,1-3.29.34A38,38,0,0,1,282.32,155Z" style="fill:#263238"></path><path d="M304.47,155.65a10.13,10.13,0,0,1-2,3.09,9.21,9.21,0,0,1-3,2.18c.45-.43.91-.81,1.34-1.24s.85-.84,1.25-1.28C302.93,157.52,303.69,156.6,304.47,155.65Z" style="fill:#263238"></path><path d="M296.36,158.94a44.91,44.91,0,0,1,8.31,6.13,32.87,32.87,0,0,1,3.5,3.86,14.41,14.41,0,0,1,2.52,4.6,5.33,5.33,0,0,1,.16,2.73,2,2,0,0,1-.88,1.23,2.37,2.37,0,0,1-1.48.22,7,7,0,0,1-2.5-1.06,17.49,17.49,0,0,1-2.09-1.6,50.64,50.64,0,0,0-8-6.38l.44-.46A58.44,58.44,0,0,1,300.7,177a23,23,0,0,1,1.35,4.7,8.73,8.73,0,0,1,.09,2.45,3.43,3.43,0,0,1-1,2.18,3.51,3.51,0,0,0,.87-2.2,9.17,9.17,0,0,0-.2-2.39,25.59,25.59,0,0,0-1.51-4.58,64,64,0,0,0-4.52-8.55l-.67-1.08,1.1.62a51.57,51.57,0,0,1,8.18,6.38,15.52,15.52,0,0,0,2,1.55,6.08,6.08,0,0,0,2.2,1,1.66,1.66,0,0,0,1-.12,1.28,1.28,0,0,0,.57-.82,4.56,4.56,0,0,0-.14-2.36,15,15,0,0,0-2.35-4.44,33.25,33.25,0,0,0-3.33-3.88A53,53,0,0,0,296.36,158.94Z" style="fill:#263238"></path><path d="M268.51,189.53l-1.21-33.41h-18c-5.45-9.14-16.34-27.41-21.06-33.17-5.53-6.75-10.58-3.35-9.71,5.5,2,20.24,12.8,51.36,16.51,54.83C240.33,188.24,268.51,189.53,268.51,189.53Z" style="fill:#FFC727"></path><path d="M262.91,185.6c-.46-2-.93-10.69-1-12.85s-.17-10.8-.26-13c0-.12.17-.16.17,0,.13,2.19.89,10.85,1,13s.48,10.79.22,12.9A.06.06,0,0,1,262.91,185.6Z" style="fill:#263238"></path><path d="M256.49,188.58c-2.9-.32-5.8-.71-8.68-1.19a72.52,72.52,0,0,1-8.58-1.87,14.13,14.13,0,0,1-4.06-1.8,12.71,12.71,0,0,1-2.59-3.63,66.27,66.27,0,0,1-3.44-8.1c-2-5.5-3.61-11.12-5.16-16.76s-2.86-11.33-4-17c1.51,5.64,3.05,11.27,4.66,16.88s3.3,11.19,5.2,16.7a77.51,77.51,0,0,0,3.29,8.07,12.43,12.43,0,0,0,2.37,3.53,13.76,13.76,0,0,0,3.89,1.77A111.66,111.66,0,0,0,256.49,188.58Z" style="fill:#263238"></path><path d="M221.07,143.05a8,8,0,0,1-.84-1.43,4.92,4.92,0,0,1-.5-1.59c.11.26.24.49.36.74l.36.74A13,13,0,0,1,221.07,143.05Z" style="fill:#263238"></path><path d="M237.25,136.67c2,2.79,3.67,5.75,5.46,8.65s3.5,5.85,5.34,8.71l.7,1.06c.12.17.24.35.37.51l.18.22c0,.05,0,0,0,.05s.08,0,.11,0c.76.09,1.67.1,2.5.12l5.11,0,10.23.06h0V157l-.05-.84h0c-3.41.16-6.82.25-10.23.31-1.7,0-3.41,0-5.12,0a26,26,0,0,1-2.6-.11.84.84,0,0,1-.2-.05.63.63,0,0,1-.19-.15c-.08-.09-.17-.18-.23-.26s-.26-.35-.39-.53c-.24-.35-.48-.71-.71-1.07-1.81-2.9-3.54-5.83-5.25-8.79l-2.54-4.43C239,139.6,238.19,138.09,237.25,136.67Z" style="fill:#263238"></path><path d="M238.44,137.15a9,9,0,0,1,.68,1.53,5.06,5.06,0,0,1,.3,1.64c-.07-.27-.18-.53-.27-.79l-.27-.77A14.13,14.13,0,0,1,238.44,137.15Z" style="fill:#263238"></path></g><g id="freepik--speech-bubble--inject-115"><path d="M313,68.77a22.62,22.62,0,0,1-37.79,14.31l-11.32,1.66L269.6,75A22.36,22.36,0,0,1,268,64.06a22.62,22.62,0,0,1,45,4.71Z" style="fill:#fff"></path><path d="M313,68.77a22.71,22.71,0,0,1-4.57,11.47,24.06,24.06,0,0,1-2.05,2.36,27,27,0,0,1-2.38,2,23.12,23.12,0,0,1-11.55,4.49,23.51,23.51,0,0,1-3.14.06,20.51,20.51,0,0,1-3.13-.33A22.88,22.88,0,0,1,275,83.32l.27.08L264,85.13l-.82.13.42-.72,5.63-9.81,0,.39A22.9,22.9,0,0,1,270.58,55a23.24,23.24,0,0,1,7.09-7.54,22.72,22.72,0,0,1,9.65-3.62,22.55,22.55,0,0,1,18.95,6.29A22.78,22.78,0,0,1,313,68.77Zm0,0a22.39,22.39,0,0,0-25.65-24.48A22.34,22.34,0,0,0,278.05,48a23.3,23.3,0,0,0-6.77,7.38,22.42,22.42,0,0,0-2.87,9.57A22.73,22.73,0,0,0,270,74.79l.08.2-.1.18-5.7,9.77-.4-.6,11.32-1.59.16,0,.11.11a22.28,22.28,0,0,0,10.83,5.58,19.8,19.8,0,0,0,3.07.37,21.25,21.25,0,0,0,3.09,0,21.92,21.92,0,0,0,6-1.33A20.73,20.73,0,0,0,304,84.51a23.78,23.78,0,0,0,2.39-2,25.53,25.53,0,0,0,2.06-2.34A22.75,22.75,0,0,0,313,68.77Z" style="fill:#263238"></path><polygon points="287.89 79.32 278.24 69.54 281.48 66.33 287.12 72.04 298.85 53.66 302.69 56.12 287.89 79.32" style="fill:#FFC727"></polygon></g></svg>