<svg xmlns="http://www.w3.org/2000/svg" viewBox="0 0 500 500"><g id="freepik--background-complete--inject-64"><polygon points="318.47 78.74 318.47 152.38 328.81 152.38 328.81 170.25 346.67 152.38 444.7 152.38 444.7 78.74 318.47 78.74" style="fill:#fff"></polygon><path d="M318.47,78.74l.32,37q.19,18.42.28,36.69l-.6-.59,10.34-.06h.64v.65l.09,17.87-1.27-.53,17.79-17.94.24-.25h.36l49-.08c16.34,0,32.68-.1,49,0l-1,1,.12-73.64.86.85-62.91-.35Zm0,0,62.91-.51,63.33-.35h.85v.86l.12,73.64v1h-1c-16.34.06-32.68,0-49,0l-49-.08.6-.25-17.94,17.78L328.05,172v-1.79l.1-17.87.65.65L318.47,153h-.6v-.6c.05-12.34.15-24.68.28-36.95Z" style="fill:#ebebeb"></path><path d="M405.45,115.56a6,6,0,1,0,6-6A6,6,0,0,0,405.45,115.56Z" style="fill:#ebebeb"></path><path d="M375.6,115.56a6,6,0,1,0,6-6A6,6,0,0,0,375.6,115.56Z" style="fill:#ebebeb"></path><path d="M345.76,115.56a6,6,0,1,0,6-6A6,6,0,0,0,345.76,115.56Z" style="fill:#ebebeb"></path><polygon points="154.23 160.35 154.23 218.06 146.13 218.06 146.13 232.06 132.13 218.06 55.3 218.06 55.3 160.35 154.23 160.35" style="fill:#fff"></polygon><path d="M154.23,160.35l.32,28.72c.13,9.62.23,19.3.28,29v.6h-.6l-8.1.05.65-.65.09,14v1.8l-1.28-1.27-14.08-13.92.61.25L93.71,219c-12.8,0-25.61.1-38.42,0h-1v-1l.12-57.71v-.86h.85l49.68.35Zm0,0-49.68.5-49.26.35.86-.85.12,57.71-1-1c12.81-.05,25.62,0,38.42,0l38.42.08h.35l.25.25,13.92,14.08-1.27.52.1-14v-.65h.65l8.1.06-.6.59q.08-14.31.28-28.72Z" style="fill:#ebebeb"></path><path d="M86.06,189.2a4.69,4.69,0,1,1-4.69-4.68A4.69,4.69,0,0,1,86.06,189.2Z" style="fill:#ebebeb"></path><path d="M109.45,189.2a4.69,4.69,0,1,1-4.69-4.68A4.69,4.69,0,0,1,109.45,189.2Z" style="fill:#ebebeb"></path><path d="M132.84,189.2a4.69,4.69,0,1,1-4.68-4.68A4.69,4.69,0,0,1,132.84,189.2Z" style="fill:#ebebeb"></path><circle cx="54.6" cy="239.7" r="10.97" transform="translate(-191.23 237.49) rotate(-76.65)" style="fill:#ebebeb"></circle><path d="M51.1,238.54a3.35,3.35,0,1,0,3.35-3.35A3.35,3.35,0,0,0,51.1,238.54Z" style="fill:#fff"></path><path d="M48.67,247.77v1.38a11,11,0,0,0,11.56,0v-1.38a5.78,5.78,0,1,0-11.56,0Z" style="fill:#fff"></path><rect x="134.9" y="167.46" width="2" height="150.45" transform="translate(-109.28 374.04) rotate(-88.93)" style="fill:#ebebeb"></rect><rect x="308.3" y="231.41" width="2" height="180.26" transform="matrix(0.86, -0.51, 0.51, 0.86, -120.97, 203.55)" style="fill:#ebebeb"></rect><rect x="180.02" y="78.61" width="2" height="145.04" transform="translate(-53.27 124.38) rotate(-33.35)" style="fill:#ebebeb"></rect><rect x="140.18" y="295.55" width="84.76" height="2" transform="translate(-150.67 195.4) rotate(-41.5)" style="fill:#ebebeb"></rect><rect x="296.87" y="240.28" width="148.54" height="2" style="fill:#ebebeb"></rect><circle cx="135.22" cy="83.61" r="25.73" transform="translate(22.49 195.7) rotate(-76.57)" style="fill:#ebebeb"></circle><path d="M127.46,79.88a8.1,8.1,0,1,0,8.1-8.09A8.1,8.1,0,0,0,127.46,79.88Z" style="fill:#fff"></path><path d="M121.57,102.21v3.34a25.89,25.89,0,0,0,7.67,3.21,26.42,26.42,0,0,0,20.3-3.22v-3.33a14,14,0,0,0-28,0Z" style="fill:#fff"></path><circle cx="361.66" cy="408.54" r="33.32" style="fill:#ebebeb"></circle><path d="M351.6,403.72a10.49,10.49,0,1,0,10.49-10.49A10.49,10.49,0,0,0,351.6,403.72Z" style="fill:#fff"></path><path d="M344,432.64V437a34.44,34.44,0,0,0,36.24,0v-4.31a18.12,18.12,0,0,0-36.24,0Z" style="fill:#fff"></path><circle cx="435.51" cy="241.28" r="20.86" style="fill:#ebebeb"></circle><path d="M428.08,234.91a7.44,7.44,0,1,0,7.43-7.43A7.44,7.44,0,0,0,428.08,234.91Z" style="fill:#fff"></path><path d="M422.66,255.42v3.07a24.44,24.44,0,0,0,25.7,0v-3.06a12.85,12.85,0,0,0-25.7,0Z" style="fill:#fff"></path><circle cx="137.75" cy="333.71" r="20.86" transform="translate(-207.87 438.04) rotate(-84.37)" style="fill:#ebebeb"></circle><path d="M130.31,327.33a7.44,7.44,0,1,0,7.44-7.43A7.44,7.44,0,0,0,130.31,327.33Z" style="fill:#fff"></path><path d="M124.9,347.85v3.06a24,24,0,0,0,7,2.95,24.3,24.3,0,0,0,18.66-3v-3a12.85,12.85,0,0,0-25.7,0Z" style="fill:#fff"></path><circle cx="250" cy="241.29" r="46.86" transform="translate(-45.07 424.74) rotate(-75.85)" style="fill:#ebebeb"></circle><rect x="67.75" y="381.99" width="32.41" height="11.19" style="fill:#ebebeb"></rect><path d="M82.08,407.29,66,407.58c-5.41.09-10.86.15-16.32.16h-.45v-.45l0-11.19v-.5h.5l16.2.06c5.41,0,10.81.13,16.21.19h.26v.25Zm0,0-.25-11.19.25.25c-5.4.06-10.8.16-16.21.18l-16.2.07.5-.5-.05,11.19-.45-.46c5.35,0,10.69.08,16.08.17Z" style="fill:#ebebeb"></path><path d="M370.91,283.65l-16.08.29c-5.42.09-10.87.16-16.33.17h-.45v-.46L338,272.46V272h.5l16.21.07c5.4,0,10.8.12,16.2.18h.26v.25Zm0,0-.25-11.19.25.25c-5.4.06-10.8.16-16.2.19L338.5,273l.5-.5L339,283.65l-.45-.45c5.35,0,10.69.07,16.09.16Z" style="fill:#ebebeb"></path><rect x="320.42" y="286.57" width="32.41" height="11.19" style="fill:#ebebeb"></rect><path d="M334.82,283.65l-16.08.29c-5.41.09-10.87.16-16.33.17H302v-.46l0-11.19V272h.5l16.21.07c5.4,0,10.8.12,16.2.18h.26v.25Zm0,0-.25-11.19.25.25c-5.4.06-10.8.16-16.2.19l-16.21.06.5-.5,0,11.19-.46-.45c5.35,0,10.7.07,16.09.16Z" style="fill:#ebebeb"></path><path d="M450.33,407.29l-16.08.29q-8.13.14-16.33.16h-.45v-.45l-.05-11.19v-.5h.5l16.21.06c5.4,0,10.8.13,16.2.19h.26v.25Zm0,0-.25-11.19.25.25c-5.4.06-10.8.16-16.2.18l-16.21.07.5-.5-.05,11.19-.45-.46c5.35,0,10.69.08,16.09.17Z" style="fill:#ebebeb"></path><path d="M432.25,49.88l-16.08.29c-5.42.09-10.87.16-16.33.17h-.45v-.46l-.05-11.18v-.51h.5l16.21.06c5.4,0,10.8.13,16.2.18h.26v.25Zm0,0L432,38.7l.25.25c-5.4,0-10.8.15-16.2.18l-16.21.06.5-.49,0,11.18-.45-.45c5.35,0,10.7.08,16.09.17Z" style="fill:#ebebeb"></path><rect x="417.92" y="52.81" width="32.41" height="11.19" style="fill:#ebebeb"></rect><rect x="57.8" y="52.81" width="32.41" height="11.19" style="fill:#ebebeb"></rect></g><g id="freepik--Floor--inject-64"><polygon points="39.15 465.21 91.86 464.96 144.58 464.87 250 464.71 355.42 464.87 408.14 464.96 460.85 465.21 408.14 465.45 355.42 465.54 250 465.7 144.58 465.54 91.86 465.45 39.15 465.21" style="fill:#263238"></polygon></g><g id="freepik--Plant--inject-64"><path d="M459.2,368.16c-13.26,18-27.09,38.81-30.46,61.34a.3.3,0,0,0,.58.11,133.2,133.2,0,0,1,5.87-18c8.72-2.4,17.28-4.38,21.86-13,4.67-8.9,4.07-20.5,3.19-30.19C460.17,367.84,459.47,367.82,459.2,368.16Z" style="fill:#FFC727"></path><path d="M435.32,411.41c6-13.37,13.61-26.8,23.33-37.8.07-.07.17,0,.11.11-6.37,7.83-11.21,16.36-15.93,25,4.39-4.46,9.21-8.45,13.36-13.18a.1.1,0,0,1,.14.13c-4.13,5-8.64,10.35-14,14-1.45,2.67-2.9,5.34-4.38,8,.36-.2.74-.39,1.11-.57.06,0,.12.07,0,.1-.41.21-.81.43-1.24.61-.7,1.26-1.39,2.52-2.11,3.78C435.58,411.94,435.19,411.69,435.32,411.41Z" style="fill:#263238"></path><path d="M439.75,406.74A78.36,78.36,0,0,0,449.93,400c.09-.07.22.05.13.12A53.59,53.59,0,0,1,439.9,407,.15.15,0,0,1,439.75,406.74Z" style="fill:#263238"></path><path d="M427.2,426.15c0,.27.49.27.49,0,.07-7.42,0-14.87.12-22.33,1.9-3.83,6-5.95,8.81-9a38.94,38.94,0,0,0,5.29-7.36,52.92,52.92,0,0,0,6.14-20.47c.78-7.93-2.23-34.12-5.57-33.21-1.74.47-7.35,13.44-8.84,17.73a123.75,123.75,0,0,0-5.28,21.74C425.65,390.66,425.88,408.58,427.2,426.15Z" style="fill:#FFC727"></path><path d="M427.15,394.15l0,0c.41-9.39,2.53-18.87,4.5-28,2.14-9.81,4.63-19,9.68-27.79.09-.16.33,0,.25.15a102.69,102.69,0,0,0-7.77,21.33c.34-.53.75-1,1.1-1.53.14-.2.46,0,.32.19a13.46,13.46,0,0,1-1.57,2.22.07.07,0,0,1-.07,0c-1.74,7-3,14.19-4.05,21.34l.24-.28c.05-.06.14,0,.11.09-.14.23-.28.47-.43.7-.54,3.64-1,7.26-1.54,10.85,6.47-5.52,12-12,15.1-20.06,0,0,.08,0,.06,0-3.05,8.32-7.86,15.72-15.26,20.77-.13,1-.27,1.93-.41,2.9,0,.2-.34.14-.34-.05,0-.86,0-1.71.07-2.57A.2.2,0,0,1,427.15,394.15Z" style="fill:#263238"></path><path d="M430.2,380.55c4.94-7.38,9.55-14.54,13.16-22.68,0-.1.2,0,.17.06-3,8.1-7.32,16.3-13.09,22.81C430.33,380.87,430.1,380.7,430.2,380.55Z" style="fill:#263238"></path><path d="M436.76,356c2.05-3.62,4.21-7.14,6.13-10.83.05-.11.2,0,.15.09a56.22,56.22,0,0,1-6,10.93C436.94,356.41,436.64,356.25,436.76,356Z" style="fill:#263238"></path><path d="M436,357.62a0,0,0,0,1,0,.06A0,0,0,0,1,436,357.62Z" style="fill:#263238"></path><path d="M422.18,404.7a74.67,74.67,0,0,1-1.73,14.61c.08.53.15,1.06.23,1.6a69.31,69.31,0,0,0,2.61-16.29.49.49,0,0,0,0-.5v0A108.27,108.27,0,0,0,421.68,382c-2.3-13.64-7.32-26.72-16.83-36.94a.68.68,0,0,0-1.05.22c-3.83,9.75-2.5,21.39.77,31.13a57.14,57.14,0,0,0,7.54,14.78C415.37,395.81,419.53,399.69,422.18,404.7Z" style="fill:#FFC727"></path><path d="M406,349.66c9,14.62,15.28,32,16,49.24,0,.3-.5.38-.54.07-.21-1.55-.45-3.09-.7-4.62,0,0,0,0,0,0-3.73-3.57-7.56-7.34-10.23-11.8-.05-.08.07-.17.13-.1a122.53,122.53,0,0,0,9.93,10.81q-1-5.73-2.31-11.28c-.25-.28-.48-.56-.72-.84s.11-.45.27-.27a2.5,2.5,0,0,0,.22.24,132.24,132.24,0,0,0-4.71-15c-2.3-2.74-4.86-5.1-6.53-8.4-.05-.08.06-.14.12-.07,1.34,1.88,2.64,3.78,4.16,5.53.61.7,1.28,1.35,1.91,2a115.69,115.69,0,0,0-7.38-15.38A.2.2,0,0,1,406,349.66Z" style="fill:#263238"></path><path d="M407.8,367.7c2.91,3.92,6.23,7.66,8.94,11.71.08.11-.09.23-.19.14-3.48-3.26-6.42-7.72-8.95-11.74C407.52,367.69,407.71,367.58,407.8,367.7Z" style="fill:#263238"></path><path d="M417.15,380.32l.12.12c.09.09,0,.22-.13.13l-.13-.12A.1.1,0,0,1,417.15,380.32Z" style="fill:#263238"></path><path d="M391.86,377.77c.72,7.53,4.68,16.51,9.51,22.31a23.7,23.7,0,0,0,7.71,6c3.34,1.65,6.84,3.55,10.29,4.91A67,67,0,0,1,423,424c.12-.37.23-.77.34-1.14C421.13,403.76,408.8,387.47,393,377A.77.77,0,0,0,391.86,377.77Z" style="fill:#FFC727"></path><path d="M397.31,383.4c-.11-.1,0-.3.16-.21A64.63,64.63,0,0,1,417.56,408c.11.26-.24.49-.39.23-.74-1.28-1.48-2.53-2.24-3.76h0c-3.6-.68-7-3.21-9.68-5.61-.08-.07,0-.17.1-.11a22.16,22.16,0,0,0,4.56,3.2c1.46.74,3,1.21,4.57,1.81-1.33-2.12-2.72-4.15-4.17-6.12a41.47,41.47,0,0,1-10.82-6.08c-.1-.07,0-.24.1-.17a108,108,0,0,0,10.05,5.37,90.57,90.57,0,0,0-7.09-8.27c-1.23-.65-2.47-1.3-3.65-2a.1.1,0,0,1,.08-.18,13.42,13.42,0,0,1,2.8,1.37C400.34,386.21,398.88,384.78,397.31,383.4Z" style="fill:#263238"></path><path d="M397.64,390a4.45,4.45,0,0,1,.61.43c.06,0,0,.13-.08.1a3.94,3.94,0,0,1-.63-.36C397.43,390.08,397.53,389.91,397.64,390Z" style="fill:#263238"></path><polygon points="447.95 465.21 404.75 465.21 408.24 425.86 409 417.18 443.7 417.18 444.47 425.86 447.95 465.21" style="fill:#455a64"></polygon><polygon points="444.47 425.86 408.24 425.86 409 417.18 443.7 417.18 444.47 425.86" style="fill:#263238"></polygon><rect x="406.93" y="411.11" width="38.83" height="8.59" style="fill:#455a64"></rect></g><g id="freepik--character-2--inject-64"><path d="M298.55,189.94S275,308,273.39,316.72c-.38,2,1,107.66,1,107.66H230.68s-4.21-92.31-2.1-109.72,28.73-124.72,28.73-124.72Z" style="fill:#ad6359"></path><path d="M298.56,189.94s-11.44,57.46-18.93,95.17L257.3,189.94Z" style="fill:#263238"></path><polygon points="242.49 248.97 288.94 254.56 298.55 189.94 257.31 189.94 242.49 248.97" style="fill:#37474f"></polygon><path d="M287.2,245.64c-5-1-10-1.61-15-2.18s-10-1.1-14.94-1.61c-2.85-.29-5.71-.58-8.57-.73a.14.14,0,1,0,0,.27c5,.92,10,1.51,15,2.17s9.94,1.27,14.92,1.8c2.86.31,5.71.55,8.58.67A.2.2,0,1,0,287.2,245.64Z" style="fill:#263238"></path><path d="M292.13,193.71q-5.19,18.56-9.88,37.24c-.44,1.75-.86,3.5-1.29,5.25a53,53,0,0,0-1.16,5.43.08.08,0,0,0,.16,0,89.43,89.43,0,0,0,2.72-9.36c.83-3.09,1.63-6.19,2.43-9.28,1.59-6.2,3.19-12.4,4.69-18.62q1.29-5.31,2.56-10.64A.12.12,0,0,0,292.13,193.71Z" style="fill:#263238"></path><path d="M198.36,464.42c2.41.8,71.3.6,73.93-1.06,1-.62,1.55-10.67,1.87-22.81.08-2.63.13-5.32.17-8.09.06-3.25.1-6.55.12-9.76.08-14.38-.44-27.05-.44-27.05H229.48l0,27.05v9.76l.24,8.09s-26.34,11.88-29,14S196,463.63,198.36,464.42Z" style="fill:#ad6359"></path><path d="M198.36,464.42c2.41.8,71.3.6,73.93-1.06,1-.62,1.55-10.67,1.87-22.81.08-2.63.13-5.32.17-8.09.06-3.25.1-6.55.12-9.76H229.5v9.76l.24,8.09s-26.34,11.88-29,14S196,463.63,198.36,464.42Z" style="fill:#dbdbdb"></path><path d="M198.15,464.53c1.57.51,30.91.62,52.28.18,4.94-.11,9.46-.25,13.11-.41,5-.23,8.4-.5,8.95-.85,1.21-.78,1.79-15.51,2.07-31.06H229.49l.23,8.12s-26.49,11.95-29.19,14.1S195.74,463.71,198.15,464.53Z" style="fill:#FFC727"></path><path d="M198.15,464.53c1.57.51,30.91.62,52.28.18,4.94-.11,9.46-.25,13.11-.41,5-.23,8.4-.5,8.95-.85,1.21-.78,1.79-15.51,2.07-31.06H229.49l.23,8.12s-26.49,11.95-29.19,14.1S195.74,463.71,198.15,464.53Z" style="opacity:0.30000000000000004"></path><path d="M199.14,461.75c11.61-.32,58.47-.51,70,.06.09,0,.09.07,0,.07-11.51.57-58.37.38-70,.06C198.89,461.94,198.89,461.76,199.14,461.75Z" style="fill:#263238"></path><path d="M228.07,437.94c4.57-.86,10.16-.18,13.66,3.07.14.12,0,.31-.19.27a64.27,64.27,0,0,0-13.45-2.76A.29.29,0,0,1,228.07,437.94Z" style="fill:#263238"></path><path d="M224.78,439.94c4.56-.87,10.16-.18,13.66,3.06.13.13-.05.32-.2.27a64.67,64.67,0,0,0-13.44-2.75A.29.29,0,0,1,224.78,439.94Z" style="fill:#263238"></path><path d="M221.48,441.94c4.57-.87,10.16-.18,13.66,3.06.14.13,0,.32-.19.27a64.14,64.14,0,0,0-13.45-2.76A.29.29,0,0,1,221.48,441.94Z" style="fill:#263238"></path><path d="M218.19,443.93c4.57-.86,10.16-.18,13.66,3.07.14.12,0,.31-.19.27a64.27,64.27,0,0,0-13.45-2.76A.29.29,0,0,1,218.19,443.93Z" style="fill:#263238"></path><path d="M221.67,433.9c3.23,2.5,7.45,3.52,11.22,4.9a.57.57,0,0,0,.72-.57.11.11,0,0,0,.1-.16,24.37,24.37,0,0,0-7.06-10.45c-1.92-1.6-5.26-2.7-7.05-.22S219.77,432.44,221.67,433.9Zm-1.18-3.67c-.82-5,4.57-2.4,5.93-1.16a24.85,24.85,0,0,1,2.43,2.6c1.59,1.9,2.88,4,4.27,6-1.82-.8-3.68-1.43-5.52-2.16C225.4,434.66,220.94,433,220.49,430.23Z" style="fill:#263238"></path><path d="M249,431.06c-1.11-2.85-4.63-2.61-6.88-1.55a24.51,24.51,0,0,0-9.45,8.36c-.06.08,0,.15.06.18-.07.34.13.78.55.74,4-.4,8.33-.33,12.1-2C247.52,435.9,250,433.75,249,431.06Zm-9.77,5.88c-2,.24-3.93.39-5.89.71a73,73,0,0,1,5.63-4.76,27.74,27.74,0,0,1,3-1.92c1.63-.85,7.51-2,5.46,2.61C246.25,436.14,241.52,436.65,239.18,436.94Z" style="fill:#263238"></path><path d="M246.42,464.79l4-.08c4.95-.11,9.47-.24,13.11-.41,5-.22,8.4-.5,8.95-.84.93-.6,1.48-9.22,1.81-20.13Z" style="opacity:0.1"></path><path d="M286.07,418.94l44.91-.57s-8.82-153.23-12.67-185.12c0,0,7.29-17.27-6.35-43.35H257.27s3.66,24.82,9.94,40.56c0,0,4.06,1.09,11.44,5.16Z" style="fill:#ad6359"></path><path d="M279.46,254.9h43l-3.26-21.65s6.53-22-6.23-43.35H257.27s2.3,23.28,9.13,40.79l7,3.1Z" style="fill:#37474f"></path><path d="M273.39,233.79c-.05-.27-.61-.27-.56,0,2.26,12.76,5.83,18.94,6.09,19.52a.08.08,0,0,0,.16,0C279.28,252.73,274.41,239.1,273.39,233.79Z" style="fill:#263238"></path><path d="M265.13,229.83a89.39,89.39,0,0,1,14.24,6.63.16.16,0,0,1-.13.29c-4.8-2.06-9.69-4-14.37-6.35A.31.31,0,0,1,265.13,229.83Z" style="fill:#263238"></path><path d="M263.61,196.92c0-.17.3-.2.3,0a159.52,159.52,0,0,0,.8,16c.23,2.47,2.21,16.12,6.5,15.13.72-.17,1.08-.87,1.19-2a16.64,16.64,0,0,0-.57-4.18c-.47-2.86-.85-5.73-1.1-8.62a77.85,77.85,0,0,1,.18-16.15.14.14,0,0,1,.27,0,148.23,148.23,0,0,0,1.31,22.29c.53,3.56,2.32,8.9-1.39,9.45s-6.23-8.4-6.69-10.85A81.69,81.69,0,0,1,263.61,196.92Z" style="fill:#263238"></path><path d="M271.09,228.41a24.23,24.23,0,0,1,1,2.83,6.68,6.68,0,0,1,.4,2.33.17.17,0,0,1-.3.06,8,8,0,0,1-1-2.26c-.33-.87-.67-1.74-1-2.63A.48.48,0,0,1,271.09,228.41Z" style="fill:#263238"></path><path d="M311,213.62c-4-.4-8.21-.35-12-2.16s-6.24-5.45-8.19-9.08a30.41,30.41,0,0,1-2.69-7.13.1.1,0,0,0-.2,0,20,20,0,0,0,1.65,6.72,30.09,30.09,0,0,0,3.22,6,14.41,14.41,0,0,0,4.62,4.34,15.79,15.79,0,0,0,6.07,1.83,34.1,34.1,0,0,0,7.49,0A.24.24,0,0,0,311,213.62Z" style="fill:#263238"></path><path d="M316.53,237.81a38,38,0,0,1-1.2-6c-.11-2,1-3.78,1.57-5.65,2.38-7.27,1.42-15.23-1.18-22.3a79.78,79.78,0,0,0-5.59-11.64c-.05-.1-.19,0-.14.08,3.54,6.92,6.68,14.31,7.37,22.13a29.74,29.74,0,0,1-1,11.22c-.52,1.71-1.51,3.37-1.66,5.18a19,19,0,0,0,.89,5.64c.52,2.27,2.1,9.1,2.8,11.4.06.2.41.16.37-.06C318.4,245.73,317,239.91,316.53,237.81Z" style="fill:#263238"></path><path d="M319.62,249.29c-5-.37-10.12-.36-15.18-.32s-10,.13-15,.23c-2.87.06-5.75.13-8.6.33a.14.14,0,1,0,0,.27c5.05.31,10.13.27,15.19.31s10,0,15,0c2.87-.05,5.73-.16,8.59-.4A.2.2,0,1,0,319.62,249.29Z" style="fill:#263238"></path><path d="M254.47,464.67c2.41.83,71.3,1.31,73.94-.33,1-.61,1.66-10.65,2.1-22.79.1-2.62.18-5.32.25-8.08.09-3.26.16-6.55.22-9.76a184.56,184.56,0,0,0-2-28.27l-42.68.77L286,423.27,286,433l.15,8.08s-26.46,11.62-29.16,13.73S252.08,463.86,254.47,464.67Z" style="fill:#ad6359"></path><path d="M254.47,464.67c2.41.83,71.3,1.31,73.94-.33,1-.61,1.66-10.65,2.1-22.79.1-2.62.18-5.32.25-8.08.09-3.26.16-6.55.22-9.76l-45-.44L286,433l.15,8.08s-26.46,11.62-29.16,13.73S252.08,463.86,254.47,464.67Z" style="fill:#dbdbdb"></path><path d="M254.26,464.78c1.57.53,30.91.92,52.28.69,4.95-.05,9.47-.14,13.12-.27,5-.18,8.4-.42,8.95-.76,1.22-.77,1.95-15.5,2.38-31L285.92,433l.15,8.13s-26.61,11.68-29.32,13.8S251.86,463.94,254.26,464.78Z" style="fill:#FFC727"></path><path d="M254.26,464.78c1.57.53,30.91.92,52.28.69,4.95-.05,9.47-.14,13.12-.27,5-.18,8.4-.42,8.95-.76,1.22-.77,1.95-15.5,2.38-31L285.92,433l.15,8.13s-26.61,11.68-29.32,13.8S251.86,463.94,254.26,464.78Z" style="opacity:0.30000000000000004"></path><path d="M255.28,462c11.61-.2,58.48.07,70,.75.09,0,.09.07,0,.08-11.5.45-58.36-.2-70-.64C255,462.19,255,462,255.28,462Z" style="fill:#263238"></path><path d="M284.45,438.49c4.57-.82,10.16-.08,13.63,3.2.13.13-.05.32-.2.27a64,64,0,0,0-13.42-2.89A.29.29,0,0,1,284.45,438.49Z" style="fill:#263238"></path><path d="M281.14,440.45c4.57-.82,10.16-.08,13.62,3.2.14.13,0,.32-.19.27A64.61,64.61,0,0,0,281.15,441,.29.29,0,0,1,281.14,440.45Z" style="fill:#263238"></path><path d="M277.82,442.42c4.58-.82,10.16-.08,13.63,3.2.14.13-.05.32-.19.27A63.48,63.48,0,0,0,277.84,443,.29.29,0,0,1,277.82,442.42Z" style="fill:#263238"></path><path d="M274.51,444.38c4.58-.82,10.16-.08,13.63,3.2.13.13-.05.32-.2.27A64.61,64.61,0,0,0,274.52,445,.29.29,0,0,1,274.51,444.38Z" style="fill:#263238"></path><path d="M278.08,434.38c3.22,2.54,7.42,3.6,11.18,5a.56.56,0,0,0,.72-.56c.08,0,.14-.07.11-.17a24.47,24.47,0,0,0-7-10.52c-1.9-1.61-5.23-2.75-7.05-.29S276.21,432.9,278.08,434.38ZM277,430.7c-.77-5,4.59-2.35,5.94-1.1a26.09,26.09,0,0,1,2.41,2.63c1.56,1.91,2.83,4,4.2,6-1.81-.81-3.67-1.46-5.5-2.21C281.81,435.19,277.37,433.47,277,430.7Z" style="fill:#263238"></path><path d="M305.4,431.82c-1.09-2.86-4.61-2.66-6.87-1.62a24.4,24.4,0,0,0-9.53,8.26c-.06.08,0,.15.06.19a.57.57,0,0,0,.54.74c4-.36,8.34-.25,12.11-1.83C303.92,436.64,306.42,434.52,305.4,431.82Zm-9.84,5.78c-2,.22-3.93.35-5.89.65a70.79,70.79,0,0,1,5.68-4.7,24.22,24.22,0,0,1,3-1.89c1.64-.84,7.52-2,5.43,2.66C302.65,436.87,297.91,437.33,295.56,437.6Z" style="fill:#263238"></path><path d="M284.23,127a5.88,5.88,0,0,0,6.55-8.42,5.42,5.42,0,0,0,5.93-2.92,5.19,5.19,0,0,0-2.16-6.54s0,0,0,0a5.3,5.3,0,0,1,1.79,6.31,4.78,4.78,0,0,1-4.55,2.71,6.53,6.53,0,0,0,3.82-3.52,5,5,0,0,0-1.12-5.46,7.44,7.44,0,0,0,2.37-6.23,5,5,0,0,0-3.66-4.13,5.63,5.63,0,0,0-5.47-8.79,4.73,4.73,0,0,0-3.8-7,3.2,3.2,0,0,0-.88-3.33,5.35,5.35,0,0,0-3.9-1.22,3.79,3.79,0,0,0-2.45-2.7,3.46,3.46,0,0,0-4.12,1.75c-1.87-1.29-4.08-2.44-6.41-2.15a5,5,0,0,0-4.27,3.41,6.85,6.85,0,0,0-9.55,3.7,4.79,4.79,0,0,0-4.51,1.64,7.13,7.13,0,0,0-1.64,3,3.61,3.61,0,0,0-3.65,2.1,4.76,4.76,0,0,0,.21,4.07,2.77,2.77,0,0,1-.43,1.14,6.22,6.22,0,0,0-.54,5.88,4.27,4.27,0,0,0-.14,6.41,4.81,4.81,0,0,0,1.44,6.58,7,7,0,0,0-.34,5.81,4.06,4.06,0,0,0,3.46,2.81,2.45,2.45,0,0,0,1.45,2.92,6.48,6.48,0,0,0,1.29.42,5,5,0,0,1,1.67.43c.48.3.65.94.93,1.39a5.29,5.29,0,0,0,.71.91,6.36,6.36,0,0,0,7.91.85c1.1,1.76,3.34,2.13,5.29,1.84a10.76,10.76,0,0,0,1.85-.5,2.74,2.74,0,0,1,1.67-.16c.37.09.71.27,1.07.37a4.4,4.4,0,0,0,3.41-.8C276.58,134.23,283,132,284.23,127ZM242.72,90.12a3.83,3.83,0,0,1,3.42-2.76c0,.12,0,.2,0,.2s-.49.18-.72.29a5.35,5.35,0,0,0-1.13.82,5,5,0,0,0-1.4,2.52,5.61,5.61,0,0,0-.09,1.29.85.85,0,0,1,0,.16A4.68,4.68,0,0,1,242.72,90.12Zm34.26-13a3.66,3.66,0,0,0-4.13.7l-.1-.07c.93-1.26,2.12-2.16,3.84-1.58a3.17,3.17,0,0,1,2.08,2.42h0A4,4,0,0,0,277,77.08Zm-3.33,52.45.05,0a6.6,6.6,0,0,0,9.18-.6C280.53,131.89,276.76,133.12,273.65,129.53Z" style="fill:#263238"></path><path d="M268.67,139.77c-2.41,10.64-11.77,49.25-20.75,51.75s-16.1-.5-16.38-8c-.31-8.13,20.8-37.3,26.73-44.3C263.93,132.6,271.05,129.3,268.67,139.77Z" style="fill:#ad6359"></path><path d="M264,166.3l-25.93-4.58s17.69-22.92,24.8-28.2c8-5.93,9.29-.54,8,8.83S264,166.3,264,166.3Z" style="fill:#FFC727"></path><path d="M267.66,140.08a9.53,9.53,0,0,0-2.31-1.31,10.24,10.24,0,0,0,4.22,3.17A9.6,9.6,0,0,0,267.66,140.08Zm-15.23,19.49a9.53,9.53,0,0,0-1.31,2.31A9,9,0,0,0,253,160a9.21,9.21,0,0,0,1.31-2.31A9.55,9.55,0,0,0,252.43,159.57Zm1.81-13.39a9.05,9.05,0,0,0-2.56.71,10.28,10.28,0,0,0,5.22-.74A8.77,8.77,0,0,0,254.24,146.18Zm11.64,10.94a9.4,9.4,0,0,0-.71-2.56,9.4,9.4,0,0,0,0,2.65,9.21,9.21,0,0,0,.71,2.57A9.46,9.46,0,0,0,265.88,157.12Zm-24.19.68c0-.18-.06-.37-.1-.55L241,158a9.07,9.07,0,0,0,.7,2.5A9.46,9.46,0,0,0,241.69,157.8Z" style="fill:#fff"></path><path d="M242.53,157.57c.93,0,9,1.32,10.79,1.64s8.94,1.57,10.72,2c.08,0,.07.14,0,.13-1.84-.14-9.09-1.37-10.89-1.66s-9.78-1.76-10.64-2C242.43,157.67,242.47,157.57,242.53,157.57Z" style="fill:#263238"></path><path d="M270.85,142.35c-1.31,9.38-6.85,24-6.85,24L245.5,163l24-31.67C271.48,132.51,271.64,136.71,270.85,142.35Z" style="opacity:0.1"></path><path d="M312.93,189.9l-55.63,0-.46-16.24s-4.69-6.29-4.37-13.28c.35-7.44,14.58-26.95,15.72-28,4.6-4.38,12.16-4.73,15.88-1.62C304,147.41,312.93,189.9,312.93,189.9Z" style="fill:#FFC727"></path><path d="M254.29,157.67A9.21,9.21,0,0,1,253,160c-.17.22-.34.43-.52.64,0-.07,0-.13,0-.2a8.49,8.49,0,0,1,.13-1.06A8.73,8.73,0,0,1,254.29,157.67Z" style="fill:#FFC727"></path><path d="M260.68,189.94h-.24a9.86,9.86,0,0,1-.52-2.11,9.4,9.4,0,0,1,0-2.65,9.4,9.4,0,0,1,.71,2.56A10.06,10.06,0,0,1,260.68,189.94Z" style="fill:#FFC727"></path><path d="M265.2,157.21a9.4,9.4,0,0,1,0-2.65,10.28,10.28,0,0,1,.74,5.22A9.21,9.21,0,0,1,265.2,157.21Z" style="fill:#FFC727"></path><path d="M266.89,171.21a10.28,10.28,0,0,1-5.22.74,9.56,9.56,0,0,1,2.57-.71A9.4,9.4,0,0,1,266.89,171.21Z" style="fill:#FFC727"></path><path d="M269.57,141.94a10.24,10.24,0,0,1-4.22-3.17,10.41,10.41,0,0,1,4.22,3.17Z" style="fill:#FFC727"></path><path d="M275.26,128.91a1.37,1.37,0,0,1-.23.19.77.77,0,0,1,.07-.16Z" style="fill:#FFC727"></path><path d="M277.12,179.36a9.1,9.1,0,0,1-1.31,2.32,9.29,9.29,0,0,1-1.86,1.9,10.41,10.41,0,0,1,3.17-4.22Z" style="fill:#FFC727"></path><path d="M281,163a9.21,9.21,0,0,1-2.31-1.31,9.33,9.33,0,0,1-1.91-1.86,9.41,9.41,0,0,1,2.32,1.31A9.55,9.55,0,0,1,281,163Z" style="fill:#FFC727"></path><path d="M282.07,146.6a10.15,10.15,0,0,1-5.22.75,10.15,10.15,0,0,1,5.22-.75Z" style="fill:#FFC727"></path><path d="M288.28,134.83a8.68,8.68,0,0,1-2.45.67,9.11,9.11,0,0,1-2.66,0,9.4,9.4,0,0,1,2.56-.71,9.94,9.94,0,0,1,2.5,0Z" style="fill:#FFC727"></path><path d="M292.2,170.32a10.28,10.28,0,0,1-5.22.74,9.05,9.05,0,0,1,2.56-.71A8.77,8.77,0,0,1,292.2,170.32Z" style="fill:#FFC727"></path><path d="M294,154a9.41,9.41,0,0,1-1.31,2.32,9.29,9.29,0,0,1-1.86,1.9,9.1,9.1,0,0,1,1.31-2.32A9.55,9.55,0,0,1,294,154Z" style="fill:#FFC727"></path><path d="M294.27,185.37a9.46,9.46,0,0,1,0,2.66,10.28,10.28,0,0,1-.74-5.22A9.77,9.77,0,0,1,294.27,185.37Z" style="fill:#FFC727"></path><path d="M307.7,175a9.21,9.21,0,0,1-2.31-1.31,8.85,8.85,0,0,1-1.91-1.86,9.74,9.74,0,0,1,2.32,1.31A9.55,9.55,0,0,1,307.7,175Z" style="fill:#FFC727"></path><path d="M311.19,187.66a10.28,10.28,0,0,1-5.22.74,9.05,9.05,0,0,1,2.56-.71A8.77,8.77,0,0,1,311.19,187.66Z" style="fill:#FFC727"></path><path d="M278.44,170.26a52,52,0,0,0-8.7.85c-1.44.29-2.85.66-4.26,1-.71.2-1.41.37-2.13.54a8.1,8.1,0,0,1-2.24.28.06.06,0,0,0,0,.12,13.65,13.65,0,0,0,2.12.15,13.16,13.16,0,0,0,2.07-.26c1.45-.28,2.9-.63,4.35-.92,2.93-.59,5.86-1.19,8.81-1.53C278.59,170.52,278.58,170.25,278.44,170.26Z" style="fill:#263238"></path><path d="M285.29,173.87a57,57,0,0,0-7.11-1.05,35.84,35.84,0,0,0-3.59-.07c-.58,0-1.15,0-1.72.06s-1.27.17-1.9.2c-.06,0-.07.12,0,.12.6,0,1.19.11,1.79.14l1.79.11c1.19.08,2.38.17,3.58.23,2.39.12,4.77.27,7.15.49C285.4,174.11,285.41,173.9,285.29,173.87Z" style="fill:#263238"></path><path d="M294.27,185.37a9.77,9.77,0,0,0-.71-2.56,10.28,10.28,0,0,0,.74,5.22A9.46,9.46,0,0,0,294.27,185.37Zm-33.67,2.37a9.4,9.4,0,0,0-.71-2.56,9.4,9.4,0,0,0,0,2.65,9.86,9.86,0,0,0,.52,2.11h.24A10.06,10.06,0,0,0,260.6,187.74Zm5.28-30.62a9.4,9.4,0,0,0-.71-2.56,9.4,9.4,0,0,0,0,2.65,9.21,9.21,0,0,0,.71,2.57A9.46,9.46,0,0,0,265.88,157.12Zm13.53-10.49a9.42,9.42,0,0,0-2.56.72,10.15,10.15,0,0,0,5.22-.75A9.46,9.46,0,0,0,279.41,146.63Zm-15.17,24.61a9.56,9.56,0,0,0-2.57.71,10.28,10.28,0,0,0,5.22-.74A9.4,9.4,0,0,0,264.24,171.24Zm44.29,16.45a9.05,9.05,0,0,0-2.56.71,10.28,10.28,0,0,0,5.22-.74A8.77,8.77,0,0,0,308.53,187.69Zm-19-17.34a9.05,9.05,0,0,0-2.56.71,10.28,10.28,0,0,0,5.22-.74A8.77,8.77,0,0,0,289.54,170.35Zm-1.31-35.58a9.94,9.94,0,0,0-2.5,0,9.4,9.4,0,0,0-2.56.71,9.11,9.11,0,0,0,2.66,0,8.68,8.68,0,0,0,2.45-.67Zm-13.13-5.83a.77.77,0,0,0-.07.16,1.37,1.37,0,0,0,.23-.19Zm-22.5,30.42a8.49,8.49,0,0,0-.13,1.06c0,.07,0,.13,0,.2.18-.21.35-.42.52-.64a9.21,9.21,0,0,0,1.31-2.31A8.73,8.73,0,0,0,252.6,159.36Zm39.49-3.5a9.1,9.1,0,0,0-1.31,2.32,9.29,9.29,0,0,0,1.86-1.9A9.41,9.41,0,0,0,294,154,9.55,9.55,0,0,0,292.09,155.86Zm-16.83,25.41a9.53,9.53,0,0,0-1.31,2.31,9.29,9.29,0,0,0,1.86-1.9,9.1,9.1,0,0,0,1.31-2.32A9.6,9.6,0,0,0,275.26,181.27Zm-7.6-41.19a9.53,9.53,0,0,0-2.31-1.31,10.24,10.24,0,0,0,4.22,3.17A9.6,9.6,0,0,0,267.66,140.08Zm11.4,21.07a9.41,9.41,0,0,0-2.32-1.31,9.33,9.33,0,0,0,1.91,1.86A9.21,9.21,0,0,0,281,163,9.55,9.55,0,0,0,279.06,161.15Zm26.74,12a9.74,9.74,0,0,0-2.32-1.31,8.85,8.85,0,0,0,1.91,1.86A9.21,9.21,0,0,0,307.7,175,9.55,9.55,0,0,0,305.8,173.14Z" style="fill:#fff"></path><path d="M235.29,179.2c-7,2.62-3,11.15,1.56,13.69,10.68,6,31.48,11.76,42.48,11.86,3.54,0,4.93-24.68,1.36-26C277,177.39,249.4,173.89,235.29,179.2Z" style="fill:#ad6359"></path><path d="M311.9,185.92a4.11,4.11,0,0,1-2.1,4.19,6,6,0,0,1,1.57,3.82c0,2.51-3.94,3.59-3.94,3.59a7.5,7.5,0,0,1,1,4.3c-.25,2.4-4.07,4.06-4.07,4.06a6.57,6.57,0,0,1-1.48,4.35c-2.81,3.16-9.17,2.08-13.22,1.44s-16-6.87-18.17-7.73l4.95-25.43s19-2.29,23.64-.86C304,178.86,311.32,182.77,311.9,185.92Z" style="fill:#ad6359"></path><path d="M309.73,190c-3.86-2.28-8.19-3.3-12.45-4.56-.09,0-.14.12,0,.15,4.25,1.2,8.21,3.24,12.41,4.61A.11.11,0,0,0,309.73,190Z" style="fill:#263238"></path><path d="M307.4,197.17a11.41,11.41,0,0,0-2.92-.92c-1.05-.26-2.11-.49-3.17-.72-2.13-.44-4.26-.83-6.41-1.16-.09,0-.14.13,0,.15q3.18.66,6.32,1.45l3.15.82a13.36,13.36,0,0,0,3,.66A.15.15,0,0,0,307.4,197.17Z" style="fill:#263238"></path><path d="M304.3,205.86a8.16,8.16,0,0,0-2.67-.69l-2.92-.56c-1.94-.38-3.88-.77-5.8-1.22-.1,0-.14.13-.05.15,2,.47,3.91,1,5.86,1.41l2.89.65a7.63,7.63,0,0,0,2.67.36A.06.06,0,0,0,304.3,205.86Z" style="fill:#263238"></path><path d="M240.58,177.72a34.92,34.92,0,0,1,4.28-1c1.44-.26,2.9-.42,4.36-.54a40.2,40.2,0,0,1,8.77.18c-1.47.1-2.92.14-4.37.25s-2.9.18-4.34.31l-4.34.37Z" style="fill:#263238"></path><path d="M289.49,134.14c7.51,7.93,34.37,40,31.13,49.57-3,8.94-11.66,9.78-16.82,4.39-7.48-7.81-18-36.76-20.5-45.59C280.9,134.1,282.12,126.35,289.49,134.14Z" style="fill:#ad6359"></path><path d="M289.55,164.51,315,157.64s-19.66-21.26-27.21-25.88c-8.49-5.2-9.29.28-7.16,9.5S289.55,164.51,289.55,164.51Z" style="fill:#FFC727"></path><path d="M315,157.64l-25.42,6.87s-6.81-14-8.95-23.25-1.33-14.7,7.16-9.5c.43.26.9.58,1.4.94l.62.46h0a120.07,120.07,0,0,1,10,8.92l.2.19c2.86,2.78,5.72,5.67,8.16,8.19l1,1.07C312.6,155.08,315,157.64,315,157.64Z" style="fill:#FFC727"></path><path d="M315,157.64l-25.42,6.87s-6.81-14-8.95-23.25-1.33-14.7,7.16-9.5c.43.26.9.58,1.4.94l.62.46h0a120.07,120.07,0,0,1,10,8.92l.2.19c2.86,2.78,5.72,5.67,8.16,8.19l1,1.07C312.6,155.08,315,157.64,315,157.64Z" style="fill:#FFC727"></path><path d="M310,155.79a9.53,9.53,0,0,0-2.31-1.31,10.24,10.24,0,0,0,4.22,3.17A9.6,9.6,0,0,0,310,155.79Zm-17.89.07a9.1,9.1,0,0,0-1.31,2.32,9.29,9.29,0,0,0,1.86-1.9A9.41,9.41,0,0,0,294,154,9.55,9.55,0,0,0,292.09,155.86Zm-6.36-21a9.4,9.4,0,0,0-2.56.71,10.28,10.28,0,0,0,5.22-.74A9.46,9.46,0,0,0,285.73,134.82Zm11.9,10a9.59,9.59,0,0,0-.72-2.57,10.15,10.15,0,0,0,.75,5.22A9.4,9.4,0,0,0,297.63,144.83Z" style="fill:#fff"></path><path d="M310.18,154.09c-.92.1-8.88,2.12-10.6,2.6s-8.76,2.35-10.5,3a.06.06,0,0,0,0,.12c1.81-.3,8.93-2.17,10.69-2.62s9.59-2.61,10.42-3C310.29,154.18,310.24,154.09,310.18,154.09Z" style="fill:#263238"></path><path d="M292.06,163.83c-.82.28-1.65.54-2.48.8l-.1,0-.05-.1c-.67-1.37-1.35-2.74-2-4.13s-1.27-2.78-1.84-4.2a81.93,81.93,0,0,1-3.13-8.61c1.17,2.83,2.37,5.62,3.57,8.43l3.6,8.4-.15-.07C290.36,164.2,291.21,164,292.06,163.83Z" style="fill:#263238"></path><path d="M282.18,149.75a8.29,8.29,0,0,1,1.16,1.22,7,7,0,0,1,.9,1.44,3.66,3.66,0,0,1-.71-.51,4.26,4.26,0,0,1-.58-.62A3.88,3.88,0,0,1,282.18,149.75Z" style="fill:#263238"></path><path d="M280.21,133.47c-.48,1.06-7.21,7.2-12.23,5.95-1.63-.41.2-9.43.2-9.43l0-.7-.22-9.75,12.37-4.85,1.77-.62s-.11,2.68-.29,6c0,.16,0,.31,0,.48s0,.36,0,.54c0,.5,0,1-.07,1.51s0,.76-.08,1.16-.07.8-.1,1.2A64.21,64.21,0,0,1,280.21,133.47Z" style="fill:#ad6359"></path><path d="M281.79,120.07a19.55,19.55,0,0,1-13.63,9.22l-.22-9.75,12.37-4.85,1.77-.62S282,116.75,281.79,120.07Z" style="fill:#263238"></path><path d="M289.56,104c3,16.86-6.76,20.56-10.4,21.2-3.3.59-14.61,2.15-19.33-14.3S262,87.74,269.47,86,286.56,87.17,289.56,104Z" style="fill:#ad6359"></path><path d="M284.65,100.38a11.78,11.78,0,0,1-1.18-.25,1.92,1.92,0,0,1-1.16-.48.62.62,0,0,1,0-.76,1.55,1.55,0,0,1,1.52-.36,2.2,2.2,0,0,1,1.42.8A.66.66,0,0,1,284.65,100.38Z" style="fill:#263238"></path><path d="M275,101.79a9.69,9.69,0,0,1-1,.6,1.94,1.94,0,0,1-1.19.42.62.62,0,0,1-.5-.56,1.52,1.52,0,0,1,.88-1.29,2.27,2.27,0,0,1,1.6-.36A.66.66,0,0,1,275,101.79Z" style="fill:#263238"></path><path d="M276.43,107.25s-.08.07-.07.11c.23,1.17.29,2.55-.71,3.12,0,0,0,.07,0,.06C276.94,110.15,276.84,108.32,276.43,107.25Z" style="fill:#263238"></path><path d="M275.18,106.19c-1.91.16-1.44,4,.33,3.83S276.79,106.05,275.18,106.19Z" style="fill:#263238"></path><path d="M274.46,106.48c-.31.26-.59.68-1,.77s-.86-.25-1.21-.6c0,0-.06,0-.06,0,.08.73.46,1.45,1.25,1.46s1.16-.7,1.26-1.45C274.72,106.57,274.58,106.38,274.46,106.48Z" style="fill:#263238"></path><path d="M283.23,105.6s.1.05.1.1c.1,1.19.41,2.53,1.53,2.8,0,0,0,.07,0,.07C283.53,108.53,283.13,106.75,283.23,105.6Z" style="fill:#263238"></path><path d="M284.14,104.25c1.89-.37,2.48,3.44.73,3.77S282.56,104.55,284.14,104.25Z" style="fill:#263238"></path><path d="M285,104.38c.34.15.69.47,1,.44s.67-.5.87-.93c0,0,.06,0,.07,0,.13.72,0,1.52-.67,1.76s-1.18-.32-1.47-1C284.77,104.53,284.84,104.31,285,104.38Z" style="fill:#263238"></path><path d="M277.5,116.78c.3.25.62.62,1.05.62a3.16,3.16,0,0,0,1.26-.4s.07,0,.05.06a1.61,1.61,0,0,1-1.46.76,1.27,1.27,0,0,1-1-1C277.37,116.77,277.45,116.74,277.5,116.78Z" style="fill:#263238"></path><path d="M282.57,111.14s.48,1.73.59,2.56a17.78,17.78,0,0,0-4.71,1.35c-.35.17-.39-.14,0-.44a7.22,7.22,0,0,1,3.91-1.54c0-.23-.79-2.65-.66-2.67a7.12,7.12,0,0,1,1.95.17c-.9-3.63-2.37-7.09-3.21-10.73a.11.11,0,0,1,.21-.08,60.42,60.42,0,0,1,3.94,11.41C284.72,111.63,282.92,111.24,282.57,111.14Z" style="fill:#263238"></path><path d="M281.16,114.08s-.53,2.11-1.76,2.46c-1.41.41-2.11-1.28-.61-2.21A4.34,4.34,0,0,1,281.16,114.08Z" style="fill:#263238"></path><path d="M280.69,115.27a2.39,2.39,0,0,1-1.29,1.27,1,1,0,0,1-1.42-.69h0s0,0,0,0C279.35,114.81,280.2,114.93,280.69,115.27Z" style="fill:#ff99ba"></path><path d="M275.6,88.8a7.51,7.51,0,0,1,.36,4.43c-1.32,4-6,3.62-7.39,5.33s-.4,4.44-1.54,6c-1.59,2.19-3,1-3.15,2.3s-.47,5.65-2.07,6.39-12.88-26,9.1-28c0,0,2.91-1.78,7.81.13,7,2.73,9.18,11.18,9.18,11.18a5.45,5.45,0,0,1-2.19-.67c-1.17-.8-1.79-1.42-2.64-1.93-1.33-.79-2,0-3.38-.78C277.58,92,275.6,88.8,275.6,88.8Z" style="fill:#263238"></path><path d="M275.29,87.9a15,15,0,0,1,1.07,3.26,6.19,6.19,0,0,1-.05,3.31,4.54,4.54,0,0,1-2.26,2.27c-1,.52-2.12.78-3.18,1.37a3.34,3.34,0,0,0-1.32,1.29,4.55,4.55,0,0,0-.43,1.76,6.19,6.19,0,0,1-.82,3.19,3.86,3.86,0,0,1-2.77,1.61c-1.1.14-2.36,0-3.37.61,1.06-.54,2.23-.29,3.39-.35a4.13,4.13,0,0,0,3.09-1.63,6.17,6.17,0,0,0,1-3.38,4.32,4.32,0,0,1,.39-1.56,2.94,2.94,0,0,1,1.14-1.07c.95-.55,2.09-.84,3.14-1.4a5.78,5.78,0,0,0,1.45-1.05,3.63,3.63,0,0,0,1-1.53,6.53,6.53,0,0,0-.09-3.51A14.92,14.92,0,0,0,275.29,87.9Z" style="fill:#263238"></path><path d="M275.83,88.84a12.29,12.29,0,0,0,1.45,2.87,5.68,5.68,0,0,0,2.51,2.13,8.18,8.18,0,0,0,1.59.39,2.64,2.64,0,0,1,1.28.64A7.66,7.66,0,0,0,283.78,96a3.58,3.58,0,0,0,1.49.63,4,4,0,0,1-1.32-.84,7.2,7.2,0,0,1-1-1.24,2.87,2.87,0,0,0-1.49-.86,8.86,8.86,0,0,1-1.5-.39,6.06,6.06,0,0,1-2.36-1.89A24.11,24.11,0,0,1,275.83,88.84Z" style="fill:#263238"></path><path d="M263.66,110.51s-4.2-5-6.5-3.45,1.19,9,4.12,9.81A2.9,2.9,0,0,0,265,115Z" style="fill:#ad6359"></path><path d="M258.21,109.18a0,0,0,0,0,0,.07c2.06.63,3.27,2.38,4.17,4.23a1.59,1.59,0,0,0-2.42-.23s0,.12.06.11a1.78,1.78,0,0,1,2,.44,8.93,8.93,0,0,1,1.08,1.5c.11.16.42,0,.33-.16a.08.08,0,0,0,0,0C263.25,112.56,261,109.19,258.21,109.18Z" style="fill:#263238"></path><path d="M307.13,188.63c4.6,6,12.61-.43,13.67-5.61,2.48-12.15-.44-36.22-3.66-47-1-3.46-23,3.9-23.17,7.75C293.79,147.85,297.79,176.45,307.13,188.63Z" style="fill:#ad6359"></path><path d="M317.23,137.77s-.37-7.3-1-13.68c-.34-3.56-2.39-10.57-3.84-13.07-2.16-3.74-13.6-18-17.11-15.29-3.18,2.44,8.2,13.44,8.2,13.44S293,97.06,289.7,100.7s11.22,14.36,11.22,14.36-11.07-12.2-13.87-7.9c-2.11,3.24,10.48,13.69,10.48,13.69s-9.58-10.42-11.9-7.18c-2.56,3.59,8.46,14,8.46,14-4.51,9.24-4.79,14.55.86,18.58C295.86,146.86,317.23,137.77,317.23,137.77Z" style="fill:#ad6359"></path><path d="M307.4,113.12c-1.19-1.46-2.37-3-3.68-4.31s-2.67-2.67-4.1-3.9a32.27,32.27,0,0,0-6-4.26c3.68,2.38,8.44,7.17,9.75,8.53s2.68,2.64,4,4C307.38,113.21,307.42,113.16,307.4,113.12Z" style="fill:#263238"></path><path d="M302.58,117.94c-1.59-1.81-3.1-3.66-4.77-5.4s-3.39-3.23-5.17-4.84c-.14-.12-.16,0,0,.12,1.71,1.68,3.17,3.37,4.86,5.07s3.45,3.33,5.07,5.09A0,0,0,1,0,302.58,117.94Z" style="fill:#263238"></path><path d="M299.19,122.81a55.55,55.55,0,0,0-7.95-7.91c-.15-.12-.16,0,0,.16,2.68,2.51,4.83,4.67,7.87,7.83C299.14,122.94,299.24,122.87,299.19,122.81Z" style="fill:#263238"></path><path d="M290,104.59a7,7,0,0,1-.76-2,2.73,2.73,0,0,1,.38-1.85s.08,0,.05,0a2.24,2.24,0,0,0-.09,2.08,11.92,11.92,0,0,0,.84,1.77,15.3,15.3,0,0,0,1.13,1.67,18.79,18.79,0,0,0,1.28,1.55h0s0,0,0,0h0s0,0,0,0a7.12,7.12,0,0,0-2.74-1.39,3,3,0,0,0-1.46-.12,1.94,1.94,0,0,0-1.06.69,1.87,1.87,0,0,0-.35,1.33,3.89,3.89,0,0,0,.49,1.26,27.45,27.45,0,0,0,1.62,2.64q.5.71,1,1.38c.36.44.76.86,1.08,1.33,0,0-.09.08-.11.06-.36-.2-2.94-1.93-4.27-1.8a1.66,1.66,0,0,0-1.52,1.19,3.36,3.36,0,0,0,.18,2.12,24.47,24.47,0,0,0,1.73,3.38s0,.06-.06,0c-.5-.79-1.57-2.47-2-3.31a3.37,3.37,0,0,1-.29-2.27,2.08,2.08,0,0,1,1.43-1.47,3.39,3.39,0,0,1,2.13.39,22.23,22.23,0,0,1,2.32,1.38c-.27-.27-1.51-1.73-1.85-2.19a24.5,24.5,0,0,1-1.85-2.86,2.54,2.54,0,0,1-.14-2.76,2.29,2.29,0,0,1,2.51-.86,5.92,5.92,0,0,1,2.06.89c-.17-.17-.33-.34-.48-.52A11.68,11.68,0,0,1,290,104.59Z" style="fill:#263238"></path><path d="M296.83,162.54c.49,1.46.93,2.94,1.37,4.4l1.34,4.4,1.36,4.38c.47,1.45,1,2.9,1.52,4.34a28,28,0,0,1-2.06-4.14c-.6-1.42-1.08-2.89-1.54-4.36s-.84-3-1.17-4.47S297,164.07,296.83,162.54Z" style="fill:#263238"></path><path d="M296.9,177.18a53.84,53.84,0,0,0,3.76,6.52,27.61,27.61,0,0,0,4.88,5.61,9,9,0,0,0,6.85,1.69,9.88,9.88,0,0,0,6.33-3.55,9.25,9.25,0,0,1-2.66,2.7,9.78,9.78,0,0,1-3.58,1.42,10.08,10.08,0,0,1-3.87-.06,8,8,0,0,1-3.56-1.63,26.34,26.34,0,0,1-4.87-5.87A35.45,35.45,0,0,1,296.9,177.18Z" style="fill:#263238"></path></g><g id="freepik--character-1--inject-64"><path d="M204.64,394.68s-1.75,45.86-1.75,45.89c.26,9,.65,16.81,1.23,20.85a.09.09,0,0,0,0,.07,6.14,6.14,0,0,0,.74,2.74s0,0,0,.06c2.72,1.73,74.38,1.75,76.88.91s.3-8-2.48-10.25-30.22-14.5-30.22-14.5l1.3-45.81Z" style="fill:#d3766a"></path><path d="M202.57,431s.32,9.59.32,9.62c.26,9,.65,16.81,1.23,20.85a.09.09,0,0,0,0,.07,11.46,11.46,0,0,0,.74,2.74s0,0,0,.06c2.72,1.73,74.38,1.75,76.88.91s.3-8-2.48-10.25-30.22-14.5-30.22-14.5l-.2-9.76Z" style="fill:#fff"></path><path d="M281.8,465.2c-2.5.85-74.16.82-76.88-.91-1-.64-1.65-11.09-2-23.72,0-.13,0-.27,0-.4l46.23-.5,0,.79s27.42,12.27,30.22,14.5S284.3,464.37,281.8,465.2Z" style="fill:#FFC727"></path><path d="M281,462.42c-12.08-.3-60.82-.37-72.79.25-.09,0-.09.07,0,.08,12,.56,60.71.24,72.79-.13C281.24,462.62,281.24,462.43,281,462.42Z" style="fill:#263238"></path><path d="M253,440.6c-4.75-.89-10.56-.16-14.2,3.22-.14.13.05.33.2.28a67.2,67.2,0,0,1,14-2.9A.3.3,0,0,0,253,440.6Z" style="fill:#263238"></path><path d="M256.41,442.67c-4.75-.89-10.56-.17-14.2,3.22-.14.13,0,.33.2.28a66.56,66.56,0,0,1,14-2.9A.3.3,0,0,0,256.41,442.67Z" style="fill:#263238"></path><path d="M259.84,444.73c-4.75-.88-10.56-.16-14.2,3.23-.14.13.05.33.2.28a67.22,67.22,0,0,1,14-2.91A.3.3,0,0,0,259.84,444.73Z" style="fill:#263238"></path><path d="M200.05,440.81l50.13-1s6.11-90.21,5-120.28c-1.23-32.67-15.27-129.87-15.27-129.87H197.55s10.82,97.58,11,130.26C208.81,350.22,200.05,440.81,200.05,440.81Z" style="fill:#263238"></path><path d="M231.57,189.66l-25.44,88c-3-41.64-8.58-88-8.58-88Z" style="fill:#37474f"></path><path d="M205.58,194.45l2.69,29,2.49,29c1.6,19.36,3.11,38.73,4.26,58.13.28,4.85.45,9.72.39,14.6s-.3,9.72-.55,14.57q-.75,14.56-1.87,29.09t-2.35,29l-2.71,29,2.17-29.06q1.08-14.52,2-29.06c.61-9.69,1.27-19.38,1.72-29.08q.34-7.28.49-14.54c.05-4.84-.14-9.68-.43-14.52-1.06-19.39-2.59-38.75-4-58.12Z" style="fill:#37474f"></path><path d="M248.08,431.45c-7.82-.07-5.58-.16-13.4-.14-3.83,0-29,.09-32.57.73a.08.08,0,0,0,0,.16c3.58.55,28.75,0,32.58-.06,7.82-.17,5.57-.21,13.4-.47A.11.11,0,0,0,248.08,431.45Z" style="fill:#37474f"></path><path d="M124.62,368.49l-24.2,39.33c-3.93,8.06-7.23,15.19-8.59,19a.14.14,0,0,0,0,.06,6.26,6.26,0,0,0-.62,2.78s0,.06,0,.08c1.61,2.79,65.08,36.05,67.68,36.47s4-7,2.56-10.23-20-26.87-20-26.87l23.78-39.48Z" style="fill:#d3766a"></path><path d="M91.2,429.71a.2.2,0,0,0,0,.07c1.61,2.79,65.08,36.05,67.69,36.47s4-7,2.56-10.23-20.05-26.87-20.05-26.87l4.24-7c-10.38-5.52-29.23-15.24-40.94-21.25-2.55,4.14-4.29,7-4.29,7-3.93,8.05-7.23,15.18-8.59,19a.14.14,0,0,0,0,.07A6,6,0,0,0,91.2,429.71Z" style="fill:#fff"></path><path d="M158.89,466.25c-2.6-.41-66.07-33.68-67.68-36.48-.63-1,3.68-10.58,9.21-21.95l.18-.35,41.19,21-.39.69s18.6,23.59,20,26.86S161.5,466.68,158.89,466.25Z" style="fill:#FFC727"></path><path d="M159.47,463.41c-10.57-5.87-53.71-28.54-64.6-33.54-.09,0-.12,0,0,.06,10.34,6.05,53.67,28.38,64.53,33.66C159.6,463.7,159.69,463.54,159.47,463.41Z" style="fill:#263238"></path><path d="M144.78,431.08c-3.8-3-9.29-5-14.07-3.73-.19,0-.11.32,0,.34a66.69,66.69,0,0,1,13.74,3.92A.31.31,0,0,0,144.78,431.08Z" style="fill:#263238"></path><path d="M146.86,434.51c-3.8-3-9.29-5.05-14.08-3.73-.18.05-.11.31.05.34A67,67,0,0,1,146.56,435,.3.3,0,0,0,146.86,434.51Z" style="fill:#263238"></path><path d="M148.94,437.93c-3.8-3-9.29-5-14.08-3.73-.18.05-.11.31,0,.34a67,67,0,0,1,13.73,3.91A.3.3,0,0,0,148.94,437.93Z" style="fill:#263238"></path><path d="M235.55,189.62v0c-.18.88-3.14,14.61-6.21,26.41-2.24,8.62-4.53,16.19-5.85,17-1.49.88-8.76,4.1-11.2,5.11,0,0-16.35,81.62-25,106.93-8,23.36-40.93,85.79-40.93,85.79L98.55,406.71S135.9,343.36,139.83,332c6.08-17.62,28.89-103.67,28.89-103.67s-.17-26.94,8.9-38.7Z" style="fill:#263238"></path><path d="M145.67,421.55c-6.83-3.82-4.82-2.82-11.69-6.56-3.37-1.83-25.49-13.84-28.92-15-.08,0-.14.09-.08.14,2.88,2.2,25.21,13.82,28.61,15.59,6.94,3.61,5,2.49,12,6A.11.11,0,0,0,145.67,421.55Z" style="fill:#37474f"></path><path d="M181,220.83c1.31-.34,2.71-.44,4-.66,1.08-.17,2.16-.36,3.22-.59a14.14,14.14,0,0,0,5.69-2.39c1.85-1.44,2.79-3.63,3.68-5.73.53-1.24,1.08-2.48,1.64-3.72l.81-1.79a18.23,18.23,0,0,0,1-2.15c0-.11.21-.05.17,0a15.25,15.25,0,0,0-.46,1.54c-.18.61-.35,1.21-.54,1.81-.33,1.07-.65,2.14-1,3.21A25.24,25.24,0,0,1,197,216c-2,3.14-5.51,4.41-9,4.85-1,.13-2,.2-3.05.26a21.53,21.53,0,0,1-3.85,0A.18.18,0,0,1,181,220.83Z" style="fill:#37474f"></path><path d="M227.35,231.12a95.36,95.36,0,0,0-15,7c-.18.1-.06.4.14.31,5.05-2.17,10.2-4.24,15.12-6.69A.33.33,0,0,0,227.35,231.12Z" style="fill:#37474f"></path><path d="M228.87,196.54c0-.18-.32-.21-.32,0,0,6-.34,11.27-.84,16.87-.24,2.6-2.33,17-6.84,15.93-.76-.18-1.14-.92-1.26-2.06a18,18,0,0,1,.6-4.41c.5-3,.9-6,1.16-9.06a82.55,82.55,0,0,0-.18-17,.15.15,0,0,0-.29,0,156,156,0,0,1-1.38,23.47c-.56,3.74-2.44,9.37,1.47,9.94s6.55-8.84,7-11.42A85.82,85.82,0,0,0,228.87,196.54Z" style="fill:#37474f"></path><path d="M221,229.69a24.35,24.35,0,0,0-1,3,6.9,6.9,0,0,0-.42,2.45.18.18,0,0,0,.32.07,8.74,8.74,0,0,0,1-2.38c.35-.93.71-1.84,1-2.77A.51.51,0,0,0,221,229.69Z" style="fill:#37474f"></path><path d="M111.46,398.78c6.81-12.81,13.83-25.51,20.87-38.2,3.47-6.25,7.1-12.43,10.41-18.77a114.73,114.73,0,0,0,7.57-19.58q6.31-20.52,12-41.25t10.6-41.63c.84-3.48,1.75-7,2.42-10.48a32.53,32.53,0,0,0,0-10.74,34.48,34.48,0,0,1-.08-10,67.09,67.09,0,0,1,2.34-9.77c.53-1.68,1.1-3.35,1.68-5a.15.15,0,0,1,.29.09c-2.06,6.75-4.17,13.57-3.72,20.71.21,3.44,1.12,6.81,1.06,10.27a48.59,48.59,0,0,1-1.74,10.14q-4.87,21-10.47,41.87t-11.84,41.5c-2,6.69-3.93,13.49-6.81,19.88s-6.54,12.46-10,18.57c-7.11,12.64-14.27,25.24-21.59,37.75-.93,1.59-1.87,3.17-2.8,4.75C111.56,399,111.41,398.88,111.46,398.78Z" style="fill:#37474f"></path><path d="M170.92,204.35c.15.19,72.42,3.29,73.09,2.62.2-.2,2.89-9.05,2.18-14.57-2.68-20.67-13-63.54-18.11-71.2-6-9-16.47-5.77-18.92-4.36-11.42,6.54-39.19,64.41-41,70.6C166.57,192.8,170.68,204,170.92,204.35Z" style="fill:#455a64"></path><path d="M219.37,200.5c7.94.15,15.83.3,23.71.53l-.43.49-2.05-12.23.27.34a9.78,9.78,0,0,1-3.65-3.06,15.2,15.2,0,0,1-2.11-4.2,25.49,25.49,0,0,1-1.11-4.52,32.51,32.51,0,0,1-.41-4.63l.43.44-18.69-.61.39-.32-.65,2.9c-.24,1-.58,1.89-.87,2.84s-.75,1.84-1.14,2.75l-.73,1.31c-.12.21-.24.43-.37.64l-.44.61a11.64,11.64,0,0,1-4.45,4,9.17,9.17,0,0,1-5.88.75l.22-.1-6,11.66Zm-18.29-12.27.06-.13.15,0a8.87,8.87,0,0,0,5.56-.84,11.12,11.12,0,0,0,4.18-3.85l.42-.59.35-.64.69-1.27c.36-.89.76-1.78,1.07-2.69s.58-1.85.8-2.8l.6-2.85.06-.33h.33l18.7.49h.42v.44a32.34,32.34,0,0,0,.43,4.48,24.81,24.81,0,0,0,1.08,4.36,15.11,15.11,0,0,0,2,3.95,8.93,8.93,0,0,0,3.26,2.79l.23.11,0,.23,2,12.24.09.52-.52,0c-8-.24-16-.56-24-.88l-23.7-.95Z" style="opacity:0.1"></path><path d="M197.54,130.28c-3.5,25,2.3,47.82,8.85,52.62,7.28,5.35,13-23.35,12.32-24.55-.5-.9-5-20.45-9.35-32.21C203.61,110.47,198.45,123.84,197.54,130.28Z" style="fill:#455a64"></path><path d="M211.34,131.66c.77,2.18,1.45,4.38,2.12,6.59s1.28,4.44,1.93,6.66,1.2,4.46,1.76,6.7,1.1,4.48,1.56,6.74c-.77-2.18-1.45-4.39-2.12-6.6s-1.28-4.43-1.93-6.65-1.2-4.45-1.75-6.69S211.81,133.92,211.34,131.66Z" style="fill:#263238"></path><path d="M220.9,130.11s-10.16-10.7-17-10.71l-5.15,5.85s-.66,4.46-1.2,3.23c-1.35-3-3.47-15.08,2.9-19.54,5.84-4.07,17.47-2.77,25.16-.44,7.38,2.24,11.32,6.78,8.86,11.56S220.9,130.11,220.9,130.11Z" style="fill:#455a64"></path><path d="M221.73,127.85s8.78-5.78,9.79-9.37-6.1-7.32-10.73-8.84c-7.17-2.37-12.11-2.08-16.32,1.63S221.73,127.85,221.73,127.85Z" style="fill:#37474f"></path><path d="M221.73,127.85c-3.45.15-9.59-5.06-11-10.23-.09-.36,1.16-3.57,2.49-7.54.8-2.41,1.63-5.11,2.22-7.64.11-.52,14.93,7.5,14.93,7.5a41.43,41.43,0,0,0-3.76,9.34,5.78,5.78,0,0,0-.13,1.06s0,.11,0,.18C226.28,122.56,225.43,127.69,221.73,127.85Z" style="fill:#eb9481"></path><path d="M226.43,120.34s0,.11,0,.18a12.09,12.09,0,0,1-1.64-.29c-9.27-2.36-9-14.59-8.82-17.65,2.71,1,14.38,7.36,14.38,7.36a41.28,41.28,0,0,0-3.78,9.34A5.74,5.74,0,0,0,226.43,120.34Z" style="fill:#263238"></path><path d="M214.79,83.68c-2.09,5.64,0,22.43,3.84,26.37,5.61,5.72,15.28,6.81,20.26,0,4.83-6.65,1.76-28.48-2.61-32.11C229.85,72.53,217.88,75.34,214.79,83.68Z" style="fill:#eb9481"></path><path d="M230.87,95s-.08.07-.07.12c.17,1.12.17,2.44-.81,2.94,0,0,0,.07,0,.06C231.24,97.79,231.21,96,230.87,95Z" style="fill:#263238"></path><path d="M229.72,93.93c-1.83.08-1.55,3.74.15,3.67S231.26,93.87,229.72,93.93Z" style="fill:#263238"></path><path d="M237.47,94.43s.09,0,.1.09c.05,1.14.3,2.44,1.36,2.73,0,0,0,.07,0,.07C237.66,97.24,237.34,95.52,237.47,94.43Z" style="fill:#263238"></path><path d="M238.39,93.16c1.82-.28,2.25,3.38.56,3.64S236.87,93.4,238.39,93.16Z" style="fill:#263238"></path><path d="M228.05,92.14a14.4,14.4,0,0,0,1.48-.32A2.51,2.51,0,0,0,231,91.2a.78.78,0,0,0,0-1,1.93,1.93,0,0,0-1.9-.44,2.79,2.79,0,0,0-1.77,1A.83.83,0,0,0,228.05,92.14Z" style="fill:#263238"></path><path d="M239.69,92.05c-.51,0-1-.08-1.5-.13a2.4,2.4,0,0,1-1.51-.41.77.77,0,0,1-.12-1,1.92,1.92,0,0,1,1.83-.68,2.83,2.83,0,0,1,1.89.77A.83.83,0,0,1,239.69,92.05Z" style="fill:#263238"></path><path d="M229.08,106.2c.28.25.57.61,1,.62a2.85,2.85,0,0,0,1.21-.34s.08,0,.06.06a1.54,1.54,0,0,1-1.42.68,1.22,1.22,0,0,1-.94-1C229,106.19,229,106.16,229.08,106.2Z" style="fill:#263238"></path><path d="M231.9,104.18a9.91,9.91,0,0,1,4.53-.54c.13,0,.24-.3.25-.42h0s-.23-2.44-.23-2.44c.33.14,2,.77,2,.31a58.78,58.78,0,0,0-2.27-11.69c0-.12-.23-.08-.21,0,.31,3.67,1.26,7.25,1.64,10.93a6.69,6.69,0,0,0-1.88-.44c-.12,0,.38,2.57.36,3a5.68,5.68,0,0,0-4.21.79C231.37,104,231.21,104.51,231.9,104.18Z" style="fill:#263238"></path><path d="M234.74,105.46c.66-.22,1.45-2.54.28-2.65s-3.79.58-4.59,2.07c-.71,1.31,2.58.27,3.15.44S234.27,105.62,234.74,105.46Z" style="fill:#263238"></path><path d="M233.58,105.33a2.05,2.05,0,0,0,.28.08c-.05-.74-.8-1.6-2.41-1.59a3.06,3.06,0,0,0-1,1.06C229.72,106.18,233,105.15,233.58,105.33Z" style="fill:#ff9abb"></path><path d="M220.33,93.81c1.1-3.33-.85-8.86.79-10.36,3.56-3.26,10.95,2.86,16,2.85,4.88,0,6.48-3.17,5.57-7.12s-4.3-6.59-9.79-7.36c-5.67-.8-10.82,1.53-13.61,3.35,0,0,1.21-2,.75-2.6s-2.85,1.31-3.57,2.13a7.42,7.42,0,0,0-1.17,2.36,8.22,8.22,0,0,0-2.23-.21,4.65,4.65,0,0,0-2.89,1.32c-.08.3,1.69.51,2.94.56,0,0-2.3,3.1-2.22,5.74s4.28,15.14,5.27,15.27C217.43,99.9,219.88,95.16,220.33,93.81Z" style="fill:#263238"></path><path d="M213.59,78.41s.1,0,.06.07A8.3,8.3,0,0,0,211,82.23a10.35,10.35,0,0,0,0,5.44c.8,3.46,2.52,6.59,4,9.78,0,.09-.12.17-.17.08-1.8-3.28-3.64-6.83-4.34-10.53C210,83.84,210.66,80.2,213.59,78.41Z" style="fill:#263238"></path><path d="M220.92,82.17a11.81,11.81,0,0,1,4.43.25,16.77,16.77,0,0,1,3.81,1.85,17,17,0,0,0,9,2.4s.05.06,0,.06A14.77,14.77,0,0,1,229.8,85a38.85,38.85,0,0,0-4-2,15.34,15.34,0,0,0-4.91-.53A.13.13,0,1,1,220.92,82.17Z" style="fill:#263238"></path><path d="M222.27,73.76a23.08,23.08,0,0,1,6.25-2.12,18.09,18.09,0,0,1,6.31-.27c3.62.56,7,2.83,7.85,6.54a7.93,7.93,0,0,1-.69,5.64.1.1,0,1,1-.18-.09,8.17,8.17,0,0,0-1.94-9.58c-3-2.54-7.15-2.71-10.85-2.09a34.24,34.24,0,0,0-6.73,2S222.26,73.77,222.27,73.76Z" style="fill:#263238"></path><path d="M218.8,97.69s-3.56-5.52-6.05-4.27,0,9.14,2.86,10.32a2.91,2.91,0,0,0,4-1.41Z" style="fill:#eb9481"></path><path d="M213.53,95.66s-.05.06,0,.08c2,.89,3,2.79,3.62,4.75a1.61,1.61,0,0,0-2.39-.53c-.05,0,0,.12.05.11a1.79,1.79,0,0,1,1.95.7,8.26,8.26,0,0,1,.88,1.63c.09.19.42.1.36-.11l0-.05C218.12,99.69,216.27,96,213.53,95.66Z" style="fill:#263238"></path><path d="M221.73,127.85s-7.92-14.61-18.42-16.41l.59,8s6.3.24,17,10.71Z" style="fill:#455a64"></path><path d="M201.05,119.44a13.41,13.41,0,0,1,5.64,1,24.8,24.8,0,0,1,5.1,2.61,43.59,43.59,0,0,1,4.6,3.43l2.14,1.93,2.05,2,.23.22.27-.12a48.29,48.29,0,0,0,5.81-3.22,28.83,28.83,0,0,0,2.7-1.94,16.78,16.78,0,0,0,2.39-2.3,29.82,29.82,0,0,1-5.39,3.74c-1,.54-1.92,1-2.9,1.52s-2,1-3,1.39l.5.1-2.05-2.1c-.71-.67-1.44-1.32-2.17-2s-1.52-1.23-2.31-1.81-1.6-1.14-2.46-1.62a23.12,23.12,0,0,0-5.37-2.41c-.47-.15-1-.25-1.43-.36s-1-.17-1.46-.21A8.42,8.42,0,0,0,201.05,119.44Z" style="fill:#263238"></path><path d="M198.45,126.31a30.88,30.88,0,0,0,2.81-3.25,31.93,31.93,0,0,0,2.4-3.58,31.24,31.24,0,0,0-2.82,3.26A30.84,30.84,0,0,0,198.45,126.31Z" style="fill:#263238"></path><path d="M217.41,124.3a58.09,58.09,0,0,0-2.26,9.79c-.35,2.31-.52,10.75,2.1,10.78s-.9-5.88-1.07-10.37,1.41-7.55,1.9-10.15Z" style="fill:#263238"></path><path d="M226.91,125a52.5,52.5,0,0,1,.79,9.07c0,2.12-.9,9.72-3.25,9.42s1.55-5.17,2.28-9.17-.31-7-.42-9.37Z" style="fill:#263238"></path><path d="M208.46,183.55c8.33.68,23-19.72,31.3-44,1.14-3.37-20.44-17.85-21.84-14.32-1.78,4.45-10.62,28.15-11,29.46C202.26,169.74,204.08,183.19,208.46,183.55Z" style="fill:#eb9481"></path><path d="M216.1,130s3-10.37,6.32-15.32a38.16,38.16,0,0,1,13.75-12c5.91-3.08,22.35-6.45,24.14-1.88,1.63,4.13-15.34,6.72-15.34,6.72s16.86-5.5,17.9-.16S244,114.58,244,114.58s17.46-5.26,17.67.41c.15,4.28-17.75,7-17.75,7s15-4.42,15.38,0c.39,4.86-16,8.41-16,8.41-1,11.34-6.11,16.32-10.17,19.44C232.21,150.58,216.1,130,216.1,130Z" style="fill:#eb9481"></path><path d="M239,109c2-.71,3.94-1.45,6-2s4-1,6.11-1.37a35.22,35.22,0,0,1,8.13-.6c-4.85.16-12.1,2-14.11,2.53s-4.05,1-6.06,1.51C239,109.14,239,109.06,239,109Z" style="fill:#263238"></path><path d="M240.83,116.36c2.54-.81,5-1.71,7.61-2.4s5.06-1.13,7.66-1.64c.2,0,.16.08,0,.13-2.59.62-4.93,1.39-7.5,2s-5.18,1.2-7.71,1.94C240.81,116.43,240.79,116.37,240.83,116.36Z" style="fill:#263238"></path><path d="M241.26,122.91a59.31,59.31,0,0,1,11.92-2.77c.2,0,.12.11-.08.16-4,.85-7.1,1.48-11.79,2.75C241.24,123.07,241.18,122.94,241.26,122.91Z" style="fill:#263238"></path><path d="M218.46,123.05a29.53,29.53,0,0,1,3.39-7.59,36.71,36.71,0,0,1,5.16-6.57,29.78,29.78,0,0,1,6.64-5.06,37.29,37.29,0,0,1,7.7-3.14,53,53,0,0,0-7.41,3.64,31.43,31.43,0,0,0-6.4,5.09,40.6,40.6,0,0,0-5.2,6.35,35.09,35.09,0,0,0-2.12,3.53A32,32,0,0,0,218.46,123.05Z" style="fill:#263238"></path><path d="M215.5,127.89,237.81,153s-20,32-29.22,31.81c-4.34-.09-8.23-15.7-4.2-27.88C206.84,149.58,215.5,127.89,215.5,127.89Z" style="fill:#455a64"></path><path d="M232.15,157.83c-2.5-2.65-4.86-5.43-7.21-8.21s-4.72-5.56-7-8.41c-1.29-1.6-2.59-3.2-3.82-4.85,0-.05,0-.11.07-.07,2.5,2.64,4.87,5.41,7.24,8.17s4.71,5.57,7,8.38c1.31,1.59,2.59,3.21,3.82,4.86C232.34,157.78,232.22,157.9,232.15,157.83Z" style="fill:#263238"></path><path d="M216.48,129l-1-1.06.13,0c-1.19,3.45-2.46,6.87-3.71,10.29L208,148.44c-1.29,3.4-2.68,6.8-3.69,10.24a41.28,41.28,0,0,0-1.08,5.31c-.28,1.8-.44,3.61-.55,5.43a40.58,40.58,0,0,1,.9-10.92,44,44,0,0,1,1.63-5.26l1.87-5.15c1.3-3.41,2.65-6.8,4-10.18s2.82-6.72,4.33-10l0-.12.08.1Z" style="fill:#263238"></path><path d="M196.16,145.33a183.4,183.4,0,0,0,2.77,22.06A65.54,65.54,0,0,0,201.87,178a20.4,20.4,0,0,0,2.52,4.81,8.11,8.11,0,0,0,1.87,1.83,3.82,3.82,0,0,0,2.34.66,7,7,0,0,0,2.42-.89,19.22,19.22,0,0,0,2.25-1.51,47.22,47.22,0,0,0,4.09-3.67,101.61,101.61,0,0,0,7.38-8.26c2.33-2.88,4.55-5.85,6.69-8.87s4.21-6.1,6.12-9.26l0,.34c-.37-.45-.72-.91-1.06-1.38s-.7-.93-1-1.41c.44.38.86.79,1.28,1.19s.85.79,1.25,1.21l.14.15-.11.2a148.61,148.61,0,0,1-12.61,18.4,101.22,101.22,0,0,1-7.39,8.39,41.65,41.65,0,0,1-4.21,3.74,19.58,19.58,0,0,1-2.38,1.57,7.62,7.62,0,0,1-2.78,1,4.61,4.61,0,0,1-2.92-.82,8.71,8.71,0,0,1-2.09-2.06,21.11,21.11,0,0,1-2.61-5,63,63,0,0,1-2.79-10.84A153,153,0,0,1,196.16,145.33Z" style="fill:#263238"></path><path d="M195.51,147.36c.4,1.19.77,2.36,1.08,3.58a8.31,8.31,0,0,1-.75-1.73A7.26,7.26,0,0,1,195.51,147.36Z" style="fill:#263238"></path></g><g id="freepik--speech-bubble--inject-64"><polygon points="242.49 38.14 242.49 69.74 246.92 69.74 246.92 77.4 254.59 69.74 296.65 69.74 296.65 38.14 242.49 38.14" style="fill:#fff"></polygon><path d="M242.48,38.14l.3,31.6-.3-.3,4.44,0h.32v.33l0,7.66-.63-.26,7.62-7.7.13-.13h.18l42.07-.06-.49.49.06-31.6.43.42-27-.17Zm0,0,27-.26,27.19-.17h.42v.43l.06,31.6v.49h-.49l-42.07-.06.3-.13-7.71,7.63-.64.63v-.9l0-7.66.32.32-4.44,0h-.3v-.3Z" style="fill:#263238"></path><path d="M279.81,53.94a2.57,2.57,0,1,0,2.57-2.57A2.57,2.57,0,0,0,279.81,53.94Z" style="fill:#263238"></path><path d="M267,53.94a2.57,2.57,0,1,0,2.57-2.57A2.57,2.57,0,0,0,267,53.94Z" style="fill:#263238"></path><path d="M254.19,53.94a2.57,2.57,0,1,0,2.57-2.57A2.57,2.57,0,0,0,254.19,53.94Z" style="fill:#263238"></path></g></svg>
